<?xml version="1.0" encoding="UTF-8"?>
<svg version="1.1" xmlns="http://www.w3.org/2000/svg" width="1024" height="1024">
<path d="M0 0 C3.63500636 1.90724369 7.16509454 3.93387525 10.69140625 6.03222656 C11.98007312 6.7745623 13.270295 7.51420473 14.56201172 8.2512207 C17.11519234 9.70969098 19.66274239 11.17722572 22.20605469 12.65283203 C87.66115891 50.48135893 164.75778416 73.58573426 240.484375 75.92285156 C241.15488388 75.94365784 241.82539276 75.96446411 242.51622009 75.98590088 C245.80017645 76.08444842 249.08296725 76.16691353 252.36791992 76.22851562 C271.9135006 76.68621444 271.9135006 76.68621444 278.69140625 82.65722656 C284.61530388 90.66249363 283.84233688 100.26748985 283.81838989 109.86534119 C283.81994988 110.84305483 283.82150987 111.82076847 283.82311714 112.8281098 C283.8270802 116.07837471 283.8239556 119.32859223 283.82080078 122.57885742 C283.82215705 124.92073087 283.82393826 127.2626041 283.82611084 129.60447693 C283.83066253 135.95260796 283.82890377 142.30072271 283.82573175 148.64885402 C283.82344939 154.6424474 283.82519622 160.63603932 283.82665895 166.62963266 C283.8295076 179.24527153 283.82623832 191.86090313 283.82085858 204.47654081 C283.81640871 215.2430719 283.8171526 226.00959217 283.82177734 236.77612305 C283.82716455 249.3232723 283.82921455 261.87041515 283.82616508 274.41756541 C283.8258466 275.76400379 283.82553223 277.11044218 283.82522202 278.45688057 C283.82506774 279.11904615 283.82491346 279.78121173 283.82475451 280.46344293 C283.82390039 285.07254836 283.82537877 289.6816495 283.82770157 294.29075432 C283.83063044 300.5395448 283.82851437 306.78831529 283.82280731 313.03710365 C283.82150523 315.30753929 283.82182924 317.57797666 283.82406998 319.84841156 C283.83484469 331.8946501 283.68334087 343.92215667 283.26144409 355.96168518 C283.2248031 357.04991795 283.1881621 358.13815073 283.15041077 359.25936025 C280.5829964 425.74929439 251.29366271 492.2750004 209.69140625 543.65722656 C208.87978027 544.66172852 208.87978027 544.66172852 208.05175781 545.68652344 C204.71158876 549.81490562 201.3575263 553.93153613 197.98876953 558.03662109 C196.92653008 559.36352088 195.9229437 560.73718173 194.9375 562.12207031 C194.52628906 562.62867188 194.11507813 563.13527344 193.69140625 563.65722656 C193.03140625 563.65722656 192.37140625 563.65722656 191.69140625 563.65722656 C191.4281958 564.24189697 191.16498535 564.82656738 190.89379883 565.42895508 C189.63541355 567.76099211 188.27330243 569.39029066 186.453125 571.30957031 C185.80359863 571.99801025 185.15407227 572.6864502 184.48486328 573.39575195 C183.78989746 574.12141357 183.09493164 574.8470752 182.37890625 575.59472656 C181.66847168 576.34165771 180.95803711 577.08858887 180.22607422 577.8581543 C178.05558829 580.13210054 175.87585617 582.39669632 173.69140625 584.65722656 C173.03382324 585.33817383 172.37624023 586.01912109 171.69873047 586.72070312 C169.91264661 588.56180743 168.1175026 590.39331722 166.31640625 592.21972656 C165.77588623 592.77329834 165.23536621 593.32687012 164.6784668 593.8972168 C163.38819464 595.19040859 162.04456614 596.42999164 160.69140625 597.65722656 C160.03140625 597.65722656 159.37140625 597.65722656 158.69140625 597.65722656 C158.36140625 598.64722656 158.03140625 599.63722656 157.69140625 600.65722656 C156.37109375 602.02441406 156.37109375 602.02441406 154.56640625 603.53222656 C153.84839844 604.14066406 153.13039063 604.74910156 152.390625 605.37597656 C151.49988281 606.12878906 150.60914063 606.88160156 149.69140625 607.65722656 C148.52961657 608.66576466 147.36958942 609.67633522 146.2109375 610.68847656 C107.4123952 644.57193438 64.67840965 673.91413166 20.44140625 700.21972656 C18.76413452 701.21987793 18.76413452 701.21987793 17.05297852 702.24023438 C-4.39959723 714.91111989 -4.39959723 714.91111989 -12.54174805 713.18334961 C-18.88533453 711.33085483 -24.3940926 708.74278185 -30.12109375 705.46972656 C-30.98404053 704.98648926 -31.8469873 704.50325195 -32.73608398 704.00537109 C-38.88548667 700.53777055 -44.92168043 696.91156665 -50.875 693.11816406 C-53.31167211 691.53555553 -53.31167211 691.53555553 -56.30859375 690.65722656 C-57.01757812 690.08875 -57.7265625 689.52027344 -58.45703125 688.93457031 C-62.09455082 686.02953756 -65.97708771 683.66332025 -69.93359375 681.21972656 C-77.8974279 676.26056816 -85.66580021 671.0669895 -93.34033203 665.67114258 C-94.09427246 665.14576904 -94.84821289 664.62039551 -95.625 664.07910156 C-96.28959229 663.61084961 -96.95418457 663.14259766 -97.63891602 662.66015625 C-99.26971654 661.48558668 -99.26971654 661.48558668 -101.30859375 661.65722656 C-102.44818759 660.50684111 -103.58460547 659.35317746 -104.70703125 658.18603516 C-107.94870256 655.09162269 -111.68049482 652.58708692 -115.30859375 649.96972656 C-117.02413326 648.71807546 -118.73897552 647.46546815 -120.453125 646.21191406 C-121.28666504 645.6031543 -122.12020508 644.99439453 -122.97900391 644.3671875 C-138.07710936 633.28490594 -152.55652649 621.35761257 -166.67626953 609.06005859 C-167.86083969 608.04202986 -169.05901907 607.03976904 -170.26513672 606.04736328 C-170.90725098 605.5151416 -171.54936523 604.98291992 -172.2109375 604.43457031 C-172.80253662 603.95109131 -173.39413574 603.4676123 -174.00366211 602.96948242 C-175.30859375 601.65722656 -175.30859375 601.65722656 -175.30859375 599.65722656 C-175.85733154 599.43373535 -176.40606934 599.21024414 -176.97143555 598.97998047 C-180.00971863 597.26041317 -182.27378126 594.95869627 -184.703125 592.49316406 C-185.21356857 591.98226227 -185.72401215 591.47136047 -186.24992371 590.94497681 C-187.32890432 589.86298064 -188.40545899 588.77856057 -189.47973633 587.69189453 C-191.1000117 586.0535438 -192.72796307 584.42315719 -194.35742188 582.79394531 C-199.88123217 577.25106291 -205.22551223 571.61019259 -210.30859375 565.65722656 C-211.72182925 564.11241396 -213.13799784 562.57027332 -214.55859375 561.03222656 C-223.32333682 551.28867969 -231.07369371 540.83031758 -238.42504883 529.9909668 C-238.90353271 529.29559814 -239.3820166 528.60022949 -239.875 527.88378906 C-240.29724854 527.26068848 -240.71949707 526.63758789 -241.15454102 525.99560547 C-241.72579712 525.33310791 -241.72579712 525.33310791 -242.30859375 524.65722656 C-242.96859375 524.65722656 -243.62859375 524.65722656 -244.30859375 524.65722656 C-244.41655273 524.09350342 -244.52451172 523.52978027 -244.63574219 522.94897461 C-245.41737887 520.2867019 -246.58999441 518.33315432 -248.07421875 515.98925781 C-248.63496094 515.09529297 -249.19570313 514.20132813 -249.7734375 513.28027344 C-250.65708984 511.88905273 -250.65708984 511.88905273 -251.55859375 510.46972656 C-263.30859375 491.86776027 -263.30859375 491.86776027 -263.30859375 488.65722656 C-263.96859375 488.32722656 -264.62859375 487.99722656 -265.30859375 487.65722656 C-266.23486328 486.10107422 -266.23486328 486.10107422 -267.19140625 484.07128906 C-267.54968506 483.31614014 -267.90796387 482.56099121 -268.27709961 481.78295898 C-268.84956421 480.54509644 -268.84956421 480.54509644 -269.43359375 479.28222656 C-269.83392822 478.42153564 -270.2342627 477.56084473 -270.64672852 476.67407227 C-271.87837521 474.00668021 -273.09569668 471.33319008 -274.30859375 468.65722656 C-274.65229004 467.90586426 -274.99598633 467.15450195 -275.35009766 466.38037109 C-287.26263404 440.11093863 -295.17387058 412.49913734 -299.55859375 384.03222656 C-299.80391846 382.50831299 -299.80391846 382.50831299 -300.05419922 380.95361328 C-304.29166403 351.21900162 -302.45802101 320.21374241 -302.44291925 290.2806716 C-302.44139507 286.3077814 -302.44148369 282.33489352 -302.44240952 278.36200333 C-302.44256275 277.69704685 -302.44271598 277.03209038 -302.44287386 276.34698371 C-302.44319365 274.99524998 -302.44351787 273.64351624 -302.44384645 272.29178251 C-302.44667583 259.71568443 -302.44345245 247.13959372 -302.43804608 234.56349684 C-302.43356159 223.79802419 -302.43437238 213.03256231 -302.43896484 202.26708984 C-302.44432357 189.69983053 -302.44642089 177.13257757 -302.44335258 164.56531727 C-302.44177741 157.93558045 -302.44157435 151.30584962 -302.44488907 144.67611313 C-302.4477818 138.45914725 -302.44576632 132.24220172 -302.43999481 126.02523804 C-302.43867578 123.74925902 -302.43904675 121.47327828 -302.44125748 119.19729996 C-302.44400209 116.08438106 -302.44054779 112.97152687 -302.43557739 109.85861206 C-302.43780811 108.96523034 -302.44003884 108.07184862 -302.44233716 107.15139472 C-302.38452083 88.40306355 -302.38452083 88.40306355 -296.30859375 81.65722656 C-290.52100857 77.09851221 -284.60322972 76.54780671 -277.46484375 76.48144531 C-276.07900321 76.46160091 -274.6931796 76.44054749 -273.30737305 76.41845703 C-272.57642426 76.40731873 -271.84547546 76.39618042 -271.09237671 76.38470459 C-229.64106386 75.65909198 -188.02261812 69.67873434 -148.30859375 57.65722656 C-147.27524902 57.34672363 -146.2419043 57.0362207 -145.17724609 56.71630859 C-101.04541558 43.32922274 -58.97972636 24.06817397 -19.25268555 0.71020508 C-13.1215019 -2.61062816 -6.38028481 -2.5894013 0 0 Z M-25.87109375 43.84472656 C-27.33067376 44.67055223 -28.7922543 45.49285255 -30.25585938 46.31152344 C-32.44295062 47.53645633 -34.62782792 48.76430911 -36.80502319 50.00675964 C-44.15861135 54.19615564 -51.70596 57.9449802 -59.30859375 61.65722656 C-60.88688407 62.4446557 -62.46504216 63.23235004 -64.04296875 64.02050781 C-108.69128706 85.89240795 -157.91435348 100.31112965 -207.07592773 107.2434082 C-209.27274517 107.43257807 -209.27274517 107.43257807 -210.30859375 108.65722656 C-212.5545518 108.86260746 -214.8063396 109.00434142 -217.05859375 109.12207031 C-218.52610902 109.20404395 -219.99355426 109.287278 -221.4609375 109.37158203 C-222.24710449 109.41643738 -223.03327148 109.46129272 -223.84326172 109.50750732 C-228.10565386 109.76636175 -232.36308281 110.08908306 -236.62109375 110.41113281 C-237.49499756 110.47690521 -238.36890137 110.54267761 -239.26928711 110.61044312 C-241.94912046 110.81269527 -244.62885837 111.01618091 -247.30859375 111.21972656 C-249.1627533 111.35979481 -251.01691993 111.4997693 -252.87109375 111.63964844 C-257.35034254 111.97776426 -261.82949456 112.31713496 -266.30859375 112.65722656 C-266.37726549 144.08019225 -266.43024278 175.50313781 -266.46178974 206.9261609 C-266.46554115 210.64926038 -266.46942419 214.37235972 -266.47338867 218.09545898 C-266.4741756 218.83655492 -266.47496253 219.57765085 -266.47577331 220.34120423 C-266.4887711 232.28741237 -266.51239333 244.23357649 -266.54005214 256.17975866 C-266.56826402 268.46876149 -266.58480306 280.75774152 -266.59085923 293.0467754 C-266.59494325 300.60896292 -266.60776563 308.17102597 -266.63234315 315.73317511 C-266.65031376 321.56519289 -266.65192017 327.39713375 -266.64791679 333.22917366 C-266.64873187 335.59720238 -266.65455927 337.96523649 -266.66621017 340.33323669 C-266.98610008 408.7963845 -241.26986099 472.71648868 -198.30859375 525.65722656 C-197.89754395 526.16447266 -197.48649414 526.67171875 -197.06298828 527.19433594 C-190.34678524 535.43287834 -183.154277 543.18783558 -175.83984375 550.89550781 C-172.17543536 554.76794365 -168.67732769 558.76254178 -165.23828125 562.83691406 C-163.3811782 564.81908611 -163.3811782 564.81908611 -160.69140625 565.66503906 C-157.73714354 566.89517468 -157.55626288 567.80168257 -156.30859375 570.65722656 C-151.17789176 576.55471478 -145.19231465 581.48865005 -139.10546875 586.35644531 C-136.3611856 588.61396315 -133.77501912 590.97678368 -131.18359375 593.40722656 C-124.66523423 599.39782118 -117.62610904 604.64995411 -110.55224609 609.96191406 C-108.30872222 611.65712949 -106.08181292 613.37198235 -103.859375 615.09472656 C-95.86273072 621.28745598 -87.81334092 627.17440605 -79.30859375 632.65722656 C-77.9111212 633.59228132 -76.51521873 634.52968801 -75.12109375 635.46972656 C-61.81164335 644.32682057 -48.28892588 652.82696469 -34.671875 661.20166016 C-32.57901513 662.49067157 -30.48965096 663.7850323 -28.40234375 665.08300781 C-26.28677966 666.39534955 -24.16626874 667.69977864 -22.0390625 668.99316406 C-20.2565774 670.07948545 -18.48741499 671.18806443 -16.734375 672.32128906 C-12.37273149 675.09296005 -12.37273149 675.09296005 -7.37109375 675.34472656 C-4.79049599 673.92276453 -2.26904284 672.44706787 0.25390625 670.92675781 C3.67566798 668.86714366 7.10346597 666.81866414 10.5390625 664.78222656 C33.70659474 650.95049735 56.32720445 635.99092744 77.99707031 619.90917969 C80.45917808 618.0899162 82.95275441 616.31492846 85.44140625 614.53222656 C96.00300752 606.82904032 106.11798986 598.58584051 116.03515625 590.07519531 C117.73826203 588.61711183 119.44849899 587.16775804 121.16015625 585.71972656 C135.83211497 573.27793809 150.52011824 560.35568526 162.9765625 545.64550781 C165.02361634 543.27204448 167.17332115 541.00682698 169.31640625 538.71972656 C175.95602201 531.42719851 181.8103302 523.56484337 187.69140625 515.65722656 C188.23732422 514.93083984 188.78324219 514.20445312 189.34570312 513.45605469 C227.84117508 462.14401657 249.12468469 403.59878493 248.91845703 339.48095703 C248.91789171 336.995575 248.91821184 334.51019263 248.91934204 332.02481079 C248.91979438 326.71141907 248.91419986 321.39808868 248.90286636 316.08471298 C248.88649163 308.40282759 248.88139123 300.72096585 248.87889038 293.0390649 C248.87453187 280.57046328 248.86127329 268.10188808 248.84228516 255.63330078 C248.82387829 243.53369273 248.80974543 231.43409191 248.80126953 219.33447266 C248.80074408 218.58647879 248.80021864 217.83848493 248.79967727 217.06782459 C248.79706686 213.3147101 248.79453953 209.56159555 248.79205346 205.80848098 C248.77137849 174.75804363 248.73605327 143.70763914 248.69140625 112.65722656 C244.05868379 111.9738848 239.52248386 111.47778325 234.84375 111.26269531 C153.48056141 107.16929575 75.44786979 82.87223197 4.36328125 43.27832031 C3.57171631 42.85687744 2.78015137 42.43543457 1.96459961 42.0012207 C-0.30859375 40.65722656 -0.30859375 40.65722656 -2.32983398 38.9206543 C-10.37269844 32.59367744 -18.3668849 39.43593217 -25.87109375 43.84472656 Z " fill="#8F1A20" transform="translate(521.30859375,154.3427734375)"/>
<path d="M0 0 C9.242079 8.93906002 15.49652209 20.16269137 15.79248047 33.12353516 C15.91771587 48.77185144 12.05407142 59.95684793 1.125 71.375 C-4.34249323 76.63999349 -9.00603038 80.12620608 -16.5 81.625 C-16.17 157.855 -15.84 234.085 -15.5 312.625 C-7.58 308.665 -7.58 308.665 0.5 304.625 C5.3439673 302.40687839 10.18979896 300.21433489 15.0625 298.0625 C17.61150011 296.92892829 20.15922415 295.79250006 22.70703125 294.65625 C23.89635254 294.12644531 25.08567383 293.59664062 26.31103516 293.05078125 C31.67878148 290.65087017 37.00854799 288.18090122 42.31542969 285.64892578 C45.16974023 284.31108733 48.04307563 283.0164955 50.9140625 281.71484375 C53.23466574 280.6438589 55.55497654 279.57224021 57.875 278.5 C59.00131836 277.99654053 60.12763672 277.49308105 61.28808594 276.97436523 C62.33512695 276.48524658 63.38216797 275.99612793 64.4609375 275.4921875 C65.88092041 274.84419189 65.88092041 274.84419189 67.32958984 274.18310547 C69.71118901 272.79674491 69.71118901 272.79674491 70.30664062 270.16821289 C70.5602815 266.83213078 70.63173965 263.53373793 70.625 260.1875 C70.62886719 258.27130859 70.62886719 258.27130859 70.6328125 256.31640625 C70.49282016 251.4017146 70.49282016 251.4017146 69.5 246.625 C67.31348386 244.88765744 67.31348386 244.88765744 64.5 243.75 C56.23831594 239.6460165 50.40811413 234.36471843 45.5 226.625 C44.51 226.295 43.52 225.965 42.5 225.625 C42.83 224.965 43.16 224.305 43.5 223.625 C42.76327981 221.29090378 42.76327981 221.29090378 41.625 218.75 C37.13089049 208.22184136 36.34040056 194.3272734 40.1875 183.4375 C40.91009083 181.81103229 41.67974021 180.20446465 42.5 178.625 C42.90863281 177.80644531 43.31726563 176.98789062 43.73828125 176.14453125 C45.92982611 171.98534549 48.27234478 168.07525214 51.5 164.625 C52.16 164.625 52.82 164.625 53.5 164.625 C53.83 163.635 54.16 162.645 54.5 161.625 C56.05859375 160.30859375 56.05859375 160.30859375 57.9375 159.0625 C60.03166854 157.65910104 61.70558012 156.41941988 63.5 154.625 C65.875 153.6875 65.875 153.6875 69.5 152.625 C70.38300781 152.36332031 71.26601563 152.10164062 72.17578125 151.83203125 C85.91844226 148.03542062 99.06162093 148.80121807 111.75 155.75 C123.31127264 163.04624453 131.64042121 173.23671549 135.4375 186.5 C138.44287413 200.90701222 136.24924747 214.0942359 128.65625 226.6875 C127.33310706 228.82306858 127.33310706 228.82306858 125.9375 232.0625 C124.27180603 235.03178056 123.47392936 235.20359813 120.5 236.625 C118.86092653 237.77181048 117.23672214 238.94005787 115.625 240.125 C112.01331584 242.69485219 108.87055011 244.58986971 104.5 245.625 C104.66113281 246.841875 104.82226562 248.05875 104.98828125 249.3125 C105.66267315 255.41425469 105.68398321 261.49171575 105.6875 267.625 C105.69974609 268.7490625 105.71199219 269.873125 105.72460938 271.03125 C105.7400243 279.8280331 105.62312351 288.57969174 99.66308594 295.54101562 C89.66897866 305.16964991 73.57956047 310.63801791 61.25 316.625 C59.15993504 317.6438417 57.06992919 318.66280465 54.97998047 319.68188477 C38.82957329 327.54463842 22.6134051 335.26255212 6.32519531 342.83544922 C3.49409952 344.15490102 0.67289146 345.49397909 -2.14550781 346.84033203 C-2.92403107 347.21090225 -3.70255432 347.58147247 -4.50466919 347.96327209 C-6.02121352 348.68572872 -7.53631062 349.41123302 -9.04977417 350.14012146 C-14.27622195 352.625 -14.27622195 352.625 -16.5 352.625 C-16.49111755 353.38841705 -16.48223511 354.15183411 -16.4730835 354.93838501 C-16.39279802 362.14739084 -16.33196529 369.35617863 -16.29275131 376.56551552 C-16.27191285 380.2715735 -16.24366497 383.9772608 -16.19824219 387.68310547 C-16.15464888 391.26225786 -16.13083477 394.84105464 -16.12049103 398.42045212 C-16.11312365 399.78318247 -16.09873662 401.14589427 -16.07707977 402.50847244 C-15.87536123 415.73074923 -15.87536123 415.73074923 -20.5 420.625 C-25.77071862 425.38150217 -29.85999398 425.9792151 -36.7734375 425.90625 C-41.72289946 425.39570378 -44.27431966 422.78258698 -47.75 419.5 C-51.98050914 412.54987785 -51.78847283 403.95462799 -51.72705078 396.03466797 C-51.72734283 395.02858994 -51.72763489 394.0225119 -51.72793579 392.98594666 C-51.72655448 389.69626919 -51.71105015 386.40682486 -51.6953125 383.1171875 C-51.69157811 380.82219568 -51.68873315 378.52720225 -51.68673706 376.23220825 C-51.6791342 370.21858244 -51.65951467 364.20505463 -51.6373291 358.19146729 C-51.61679831 352.04432501 -51.60771992 345.89716675 -51.59765625 339.75 C-51.57626545 327.70829049 -51.54217022 315.66665342 -51.5 303.625 C-57.18089198 301.04798373 -62.86253727 298.47263759 -68.54483032 295.89871216 C-70.47019961 295.02630644 -72.39537671 294.15347641 -74.32034302 293.28018188 C-88.47826888 286.85767339 -102.68822392 280.57958267 -116.9765625 274.453125 C-121.2448513 272.61613995 -125.48739587 270.73452804 -129.7109375 268.796875 C-130.65533691 268.36391113 -131.59973633 267.93094727 -132.57275391 267.48486328 C-134.29970892 266.68831591 -136.02360494 265.88508629 -137.74365234 265.07373047 C-139.63675503 264.19957824 -141.56544399 263.40312142 -143.5 262.625 C-144.16 262.955 -144.82 263.285 -145.5 263.625 C-145.5 262.635 -145.5 261.645 -145.5 260.625 C-146.758125 260.25375 -148.01625 259.8825 -149.3125 259.5 C-159.2491364 256.14599339 -167.90207061 251.64952881 -172.8125 242.0625 C-174.36947374 236.54232039 -174.57134689 231.29187273 -174.4296875 225.59375 C-174.41879226 224.04559154 -174.41107633 222.49740802 -174.40625 220.94921875 C-174.39838093 218.53095652 -174.37480216 216.11878554 -174.29785156 213.70166016 C-174.14302035 208.48724172 -174.16538654 203.69200702 -175.5 198.625 C-178.77281226 195.42622092 -182.2370249 194.13172808 -186.5 192.625 C-196.65336177 185.59882043 -203.85419715 174.71092467 -206.5 162.625 C-208.06097157 146.47847961 -205.70557795 132.64052676 -195.5 119.625 C-184.99818956 108.27598469 -171.4644789 102.30931013 -156.0625 101.4375 C-142.65029603 102.14340547 -129.24742094 108.77439966 -120.125 118.5546875 C-109.6944245 131.84364186 -106.96416086 145.12921827 -108.5 161.625 C-111.21456823 176.13501352 -119.86593411 186.23993982 -131.5 194.625 C-132.8253762 195.307349 -134.15669359 195.9786641 -135.5 196.625 C-136.16 197.285 -136.82 197.945 -137.5 198.625 C-138.16 198.625 -138.82 198.625 -139.5 198.625 C-139.5 207.205 -139.5 215.785 -139.5 224.625 C-122.42504381 232.50955393 -105.36652247 240.36805995 -87.99707031 247.58642578 C-75.32657033 252.88890746 -62.92035101 258.76605681 -50.5 264.625 C-50.57105453 263.46785492 -50.64210907 262.31070984 -50.71531677 261.11849976 C-51.70367068 243.44545842 -51.63110816 225.77880847 -51.60139394 208.08567858 C-51.59505419 203.66017853 -51.59454834 199.23467747 -51.59336853 194.80917358 C-51.59028603 186.46589793 -51.5821151 178.1226357 -51.57201904 169.7793659 C-51.56076104 160.26513291 -51.55532328 150.75089921 -51.55032361 141.2366612 C-51.53992916 121.69943324 -51.52239074 102.16221771 -51.5 82.625 C-52.18761414 82.28930496 -52.87522827 81.95360992 -53.5836792 81.60774231 C-54.48515686 81.16331284 -55.38663452 80.71888336 -56.31542969 80.26098633 C-57.20929382 79.82216629 -58.10315796 79.38334625 -59.02410889 78.93122864 C-70.07570468 73.10063664 -77.85000379 62.34340887 -81.5 50.625 C-84.46293453 40.00648327 -83.29126068 29.37256406 -81.5 18.625 C-80.84 18.625 -80.18 18.625 -79.5 18.625 C-79.2215625 17.1709375 -79.2215625 17.1709375 -78.9375 15.6875 C-76.14140227 6.05649671 -66.8821458 -2.22260032 -58.4921875 -7.13671875 C-38.31579758 -17.1762959 -17.10747729 -14.57965602 0 0 Z M-45.8125 27.125 C-48.92262982 31.73259973 -49.15638658 36.22598926 -48.5 41.625 C-46.13619663 46.44352225 -43.33763525 49.29576821 -38.5 51.625 C-33.57194958 52.42326271 -29.06798057 52.2718313 -24.5625 50 C-20.14233778 46.5721191 -18.98020192 43.51150756 -17.625 38.1875 C-17.42509963 32.49033934 -19.30813119 28.99564913 -23 24.75 C-26.92225601 21.41608239 -30.28796467 21.33811556 -35.21875 21.41015625 C-39.89868833 21.85090387 -42.68281314 23.74155474 -45.8125 27.125 Z M-168.5 140.625 C-168.5 141.285 -168.5 141.945 -168.5 142.625 C-169.16 142.625 -169.82 142.625 -170.5 142.625 C-172.79726981 147.96059439 -174.18871502 152.16857179 -172.37109375 157.8359375 C-170.40038852 161.88339489 -167.15429836 164.18880109 -163.5 166.625 C-158.22258959 167.33749183 -153.79112006 167.27056003 -149 164.875 C-144.72917722 161.0312595 -142.69163445 158.16415648 -142.25 152.3125 C-142.56465592 147.67132512 -143.61359039 144.53718023 -146.9296875 141.17578125 C-150.47549239 138.0974581 -153.07074508 136.76242836 -157.75 136.3125 C-162.41769608 136.70147467 -164.617784 138.08967526 -168.5 140.625 Z M76.6875 187.8125 C73.29283813 192.17706526 71.43168752 195.64393803 71.625 201.25 C73.13723141 207.0828926 75.57508992 210.17756295 80.5 213.625 C85.54804504 215.30768168 89.82083946 215.18712419 94.6875 213.0625 C98.8284246 210.76287974 101.07828829 208.15670608 102.5 203.625 C103.29362172 198.87980348 103.00905745 195.62426092 100.8125 191.3125 C97.7218158 187.72062377 95.27719228 185.17790426 90.6875 183.75 C85.16252583 183.53333435 81.0912056 184.38739565 76.6875 187.8125 Z " fill="#901A20" transform="translate(545.5,301.375)"/>
<path d="M0 0 C1.97340033 1.64324406 2.90670818 2.60653253 3.50725448 5.13939583 C3.56411646 5.9451741 3.62097845 6.75095236 3.67956352 7.58114815 C3.74385607 8.47226115 3.80814861 9.36337414 3.87438941 10.28149056 C4.06583617 14.42484999 4.13797125 18.55408943 4.12698364 22.70162964 C4.12854363 23.62458993 4.13010362 24.54755022 4.13171089 25.49847901 C4.13567003 28.56264202 4.13255107 31.62675467 4.12939453 34.69091797 C4.13075085 36.89949574 4.13253208 39.10807328 4.13470459 41.31665039 C4.13925202 47.29601776 4.13750028 53.27536781 4.1343255 59.25473547 C4.13178737 65.52448923 4.13414355 71.79424154 4.13571167 78.06399536 C4.13764571 89.26742454 4.13454437 100.47084739 4.12945233 111.67427506 C4.12498725 121.81166252 4.12575938 131.94903853 4.13037109 142.08642578 C4.13573517 153.88301648 4.13770778 165.6796016 4.13475883 177.47619355 C4.13320378 183.71166962 4.13298104 189.94713782 4.13629532 196.18261337 C4.13919528 202.04805533 4.13715939 207.91347576 4.13140106 213.77891541 C4.13008472 215.92503448 4.13044834 218.07115538 4.13266373 220.21727371 C4.15215961 241.0311719 4.15215961 241.0311719 3 251 C1.34090491 248.08516516 0.74846426 245.99525225 0.73828697 242.65031815 C0.73082148 241.78195524 0.72335599 240.91359234 0.71566427 240.01891541 C0.717599 239.06950255 0.71953374 238.12008969 0.7215271 237.14190674 C0.7157347 236.12985161 0.7099423 235.11779647 0.70397437 234.075073 C0.68692991 230.6740401 0.68409401 227.27314252 0.68115234 223.87207031 C0.67185725 221.43801031 0.66168921 219.00395351 0.65071106 216.56990051 C0.62902245 211.32450077 0.61342353 206.07912021 0.60334396 200.83368683 C0.58876011 193.24966965 0.56322413 185.66572049 0.53501268 178.08174321 C0.48953934 165.77733249 0.45292677 153.47291198 0.421875 141.16845703 C0.39169168 129.21564006 0.35734241 117.26284705 0.31738281 105.31005859 C0.31492126 104.57332158 0.31245972 103.83658457 0.30992357 103.07752219 C0.29754902 99.38153889 0.28509247 95.68555588 0.27259517 91.989573 C0.16901925 61.32641479 0.07996612 30.66322941 0 0 Z " fill="#830A0B" transform="translate(801,241)"/>
<path d="M0 0 C0.66 0 1.32 0 2 0 C2 29.7 2 59.4 2 90 C1.01 90.495 1.01 90.495 0 91 C-0.84528394 85.87609215 -1.14363702 80.90546 -1.12939453 75.7097168 C-1.13114685 74.91211441 -1.13289917 74.11451202 -1.13470459 73.29273987 C-1.13907666 70.67821017 -1.13620298 68.06374904 -1.1328125 65.44921875 C-1.13348654 63.62555427 -1.1344574 61.80188988 -1.13571167 59.97822571 C-1.13718205 56.16801086 -1.13505405 52.35781953 -1.13037109 48.54760742 C-1.12465389 43.65705097 -1.12796952 38.76654916 -1.13394356 33.87599468 C-1.1375497 30.11602869 -1.13641069 26.35607576 -1.13381577 22.59610939 C-1.13314769 20.79192918 -1.13397076 18.98774779 -1.13629532 17.18356895 C-1.13882488 14.67011727 -1.13497786 12.15675551 -1.12939453 9.64331055 C-1.13141876 8.89473785 -1.13344299 8.14616516 -1.13552856 7.37490845 C-1.11426869 2.22853737 -1.11426869 2.22853737 0 0 Z " fill="#8B1415" transform="translate(495,608)"/>
<path d="M0 0 C0.33 0 0.66 0 1 0 C1 30.69 1 61.38 1 93 C0.34 92.67 -0.32 92.34 -1 92 C-1.90690396 73.97565381 -2.18812226 55.97761566 -2.18530273 37.93505859 C-2.18519886 34.28488968 -2.19913715 30.6349056 -2.21607494 26.98478127 C-2.22715143 24.14011747 -2.22922372 21.29550026 -2.22869301 18.45081711 C-2.23043508 16.45268055 -2.2412497 14.45455849 -2.25224304 12.45645142 C-2.24916641 11.25604218 -2.24608978 10.05563293 -2.24291992 8.81884766 C-2.24434494 7.76396149 -2.24576996 6.70907532 -2.24723816 5.6222229 C-2 3 -2 3 0 0 Z " fill="#850E0E" transform="translate(496,475)"/>
<path d="M0 0 C16.46730091 7.05268133 32.76531659 14.42865025 49 22 C49 22.66 49 23.32 49 24 C41.28453875 21.64337992 34.12723424 18.40930635 26.84570312 14.96484375 C25.99041016 14.56910156 25.13511719 14.17335938 24.25390625 13.765625 C23.48377197 13.40243164 22.7136377 13.03923828 21.92016602 12.66503906 C21.28651123 12.44557617 20.65285645 12.22611328 20 12 C19.01 12.495 19.01 12.495 18 13 C18 12.01 18 11.02 18 10 C17.45472656 9.84144531 16.90945313 9.68289063 16.34765625 9.51953125 C10.43878753 7.69131717 5.30135828 5.17078876 0 2 C0 1.34 0 0.68 0 0 Z " fill="#8B1517" transform="translate(382,552)"/>
<path d="M0 0 C3.89678538 1.29892846 5.04557598 3.64970212 7.1875 6.9375 C11.90026022 13.95474615 17.04125466 20.50035902 22.5 26.95703125 C23.7375 28.43236328 23.7375 28.43236328 25 29.9375 C25.763125 30.83339844 26.52625 31.72929688 27.3125 32.65234375 C29 35 29 35 29 38 C20.16113934 29.33759572 12.39870254 19.84001188 5.25 9.75 C4.72462646 9.01104492 4.19925293 8.27208984 3.65795898 7.51074219 C0 2.25860306 0 2.25860306 0 0 Z " fill="#871314" transform="translate(305,657)"/>
<path d="M0 0 C0.33 0 0.66 0 1 0 C1 12.87 1 25.74 1 39 C0.01 39.495 0.01 39.495 -1 40 C-1.70161398 32.2070733 -2.12229933 24.44744988 -2.1875 16.625 C-2.20039063 15.88910645 -2.21328125 15.15321289 -2.2265625 14.39501953 C-2.23576043 9.28902084 -1.40250905 4.91155343 0 0 Z " fill="#850D0E" transform="translate(496,415)"/>
<path d="M0 0 C5.17399191 1.44967885 9.17204649 3.79329596 13.625 6.6875 C15.03292225 7.58609722 16.44178698 8.48321937 17.8515625 9.37890625 C18.54668945 9.82121582 19.24181641 10.26352539 19.95800781 10.71923828 C24.56265949 13.60733042 29.28235098 16.30164772 34 19 C31.4058753 19.99554493 30.35122231 20.15226644 27.75756836 19.02783203 C26.95971924 18.52622559 26.16187012 18.02461914 25.33984375 17.5078125 C24.46392578 16.96769531 23.58800781 16.42757812 22.68554688 15.87109375 C21.77869141 15.29488281 20.87183594 14.71867188 19.9375 14.125 C18.13558827 13.00023981 16.33226292 11.87774024 14.52734375 10.7578125 C13.73062256 10.2539502 12.93390137 9.75008789 12.11303711 9.23095703 C9.93125219 7.86358774 9.93125219 7.86358774 7 7 C4.0070304 4.81002224 2.07082077 3.10623115 0 0 Z " fill="#8A1517" transform="translate(458,838)"/>
<path d="M0 0 C0.66 0 1.32 0 2 0 C1.35373792 3.24004987 0.18325795 5.65753085 -1.51171875 8.484375 C-2.02283203 9.33773437 -2.53394531 10.19109375 -3.06054688 11.0703125 C-3.59744141 11.95460938 -4.13433594 12.83890625 -4.6875 13.75 C-5.20505859 14.61882813 -5.72261719 15.48765625 -6.25585938 16.3828125 C-9.54415661 21.8373728 -13.06787723 26.98955836 -17 32 C-17.33 31.01 -17.66 30.02 -18 29 C-16.60104027 26.61602759 -15.16397205 24.42927642 -13.5625 22.1875 C-8.59587973 15.01633549 -4.21105665 7.63401052 0 0 Z " fill="#891415" transform="translate(734,630)"/>
<path d="M0 0 C0.556875 0.226875 1.11375 0.45375 1.6875 0.6875 C-1.97727009 2.77418258 -5.64465322 4.85623093 -9.3125 6.9375 C-10.34246094 7.52402344 -11.37242187 8.11054688 -12.43359375 8.71484375 C-28.26176264 17.6875 -28.26176264 17.6875 -31.3125 17.6875 C-31.3125 17.0275 -31.3125 16.3675 -31.3125 15.6875 C-30.61165283 15.30940186 -29.91080566 14.93130371 -29.1887207 14.54174805 C-26.00016688 12.82069413 -22.81257542 11.09786529 -19.625 9.375 C-18.52220703 8.78009766 -17.41941406 8.18519531 -16.28320312 7.57226562 C-15.21650391 6.99541016 -14.14980469 6.41855469 -13.05078125 5.82421875 C-12.07149658 5.29530029 -11.09221191 4.76638184 -10.08325195 4.22143555 C-7.29144393 2.72858525 -7.29144393 2.72858525 -4.70385742 0.92895508 C-2.3125 -0.3125 -2.3125 -0.3125 0 0 Z " fill="#881415" transform="translate(504.3125,155.3125)"/>
<path d="M0 0 C4.17443363 3.50074982 8.3145494 6.97950843 12 11 C12 11.66 12 12.32 12 13 C12.99 13.33 13.98 13.66 15 14 C15 14.66 15 15.32 15 16 C15.5775 16.2475 16.155 16.495 16.75 16.75 C19.32939979 18.18299988 21.06121592 19.78424676 23 22 C23 22.66 23 23.32 23 24 C17.36241907 21.58630037 13.50987594 16.83810665 9.25 12.5625 C7.91775391 11.25442383 7.91775391 11.25442383 6.55859375 9.91992188 C5.71941406 9.08138672 4.88023437 8.24285156 4.015625 7.37890625 C3.24508789 6.6113501 2.47455078 5.84379395 1.68066406 5.05297852 C0 3 0 3 0 0 Z " fill="#891215" transform="translate(321,728)"/>
<path d="M0 0 C0.99 0.33 1.98 0.66 3 1 C2.01 1.33 1.02 1.66 0 2 C0.0721875 2.58007812 0.144375 3.16015625 0.21875 3.7578125 C0.74517903 8.18859013 1.22352909 12.52941815 1 17 C0.67 17.33 0.34 17.66 0 18 C-0.15620555 19.41327947 -0.25056173 20.8335459 -0.31640625 22.25390625 C-0.35830078 23.10791016 -0.40019531 23.96191406 -0.44335938 24.84179688 C-0.48267578 25.73962891 -0.52199219 26.63746094 -0.5625 27.5625 C-0.60568359 28.46419922 -0.64886719 29.36589844 -0.69335938 30.29492188 C-0.79978142 32.52978485 -0.90179988 34.76476308 -1 37 C-1.33 37 -1.66 37 -2 37 C-2.0493651 32.05209823 -2.08570269 27.10433917 -2.10986328 22.15625 C-2.11993317 20.47230534 -2.13358988 18.78837821 -2.15087891 17.10449219 C-2.17508426 14.68680499 -2.18647296 12.26934857 -2.1953125 9.8515625 C-2.20563507 9.0963028 -2.21595764 8.34104309 -2.22659302 7.56289673 C-2.22699318 5.7070602 -2.12222716 3.8518072 -2 2 C-1.34 1.34 -0.68 0.68 0 0 Z " fill="#8C1315" transform="translate(650,545)"/>
<path d="M0 0 C0.99 0.33 1.98 0.66 3 1 C-11.8568707 17.25714425 -11.8568707 17.25714425 -20 24 C-20 21 -20 21 -18.27172852 18.94702148 C-17.48209717 18.17946533 -16.69246582 17.41190918 -15.87890625 16.62109375 C-14.59983398 15.36329102 -14.59983398 15.36329102 -13.29492188 14.08007812 C-11.94237305 12.77200195 -11.94237305 12.77200195 -10.5625 11.4375 C-8.79090423 9.7091449 -7.0212695 7.97877666 -5.25390625 6.24609375 C-4.46314697 5.47966553 -3.6723877 4.7132373 -2.85766602 3.92358398 C-0.94042981 2.13056294 -0.94042981 2.13056294 0 0 Z " fill="#881112" transform="translate(679,704)"/>
<path d="M0 0 C0 0.66 0 1.32 0 2 C-9.57 2 -19.14 2 -29 2 C-29 1.34 -29 0.68 -29 0 C-18.81798518 -2.2665444 -10.13719132 -1.69170073 0 0 Z " fill="#8A1517" transform="translate(526,290)"/>
<path d="M0 0 C3 0 3 0 4.4375 1.328125 C4.953125 1.96234375 5.46875 2.5965625 6 3.25 C9.19223406 7.05743976 12.46250673 10.76919152 15.8125 14.4375 C16.29267578 14.96956055 16.77285156 15.50162109 17.26757812 16.04980469 C19.82476762 18.91197739 19.82476762 18.91197739 23 21 C22.67 21.99 22.34 22.98 22 24 C18.88757339 20.94579982 15.78657193 17.88024557 12.6875 14.8125 C11.80642578 13.94818359 10.92535156 13.08386719 10.01757812 12.19335938 C9.17001953 11.35224609 8.32246094 10.51113281 7.44921875 9.64453125 C6.27879028 8.48981323 6.27879028 8.48981323 5.0847168 7.31176758 C3.00679405 5.007534 1.49809691 2.70914587 0 0 Z " fill="#881515" transform="translate(337,698)"/>
<path d="M0 0 C0.66 0 1.32 0 2 0 C2.43570312 0.95519531 2.87140625 1.91039062 3.3203125 2.89453125 C3.92103809 4.200906 4.52266486 5.50686658 5.125 6.8125 C5.43759766 7.49159424 5.75019531 8.17068848 6.07226562 8.87036133 C8.45831936 13.99133878 11.11533104 18.88796047 14.03125 23.73046875 C15.14376301 26.33679963 15.00407298 27.40016818 14 30 C0 6.29949239 0 6.29949239 0 0 Z " fill="#891415" transform="translate(278,608)"/>
<path d="M0 0 C0.33 0 0.66 0 1 0 C2.40027356 26.17654243 2.40027356 26.17654243 1 36 C-1.36917502 32.29172606 -1.23492174 29.07831167 -1.1875 24.75 C-1.18105469 24.05777344 -1.17460938 23.36554688 -1.16796875 22.65234375 C-1.05891123 15.08647806 -0.56176986 7.54376674 0 0 Z " fill="#830B0C" transform="translate(803,456)"/>
<path d="M0 0 C5.41853742 0.85368642 7.8504456 4.82402831 11 9 C14.30655682 13.91023688 16.78445319 17.88126509 16 24 C14.30881475 21.46322212 13.17313433 19.19664045 11.9375 16.4375 C9.34713145 11.13192587 5.85324154 7.17932761 1.79296875 2.93359375 C0 1 0 1 0 0 Z " fill="#871314" transform="translate(663,464)"/>
<path d="M0 0 C0 0.99 0 1.98 0 3 C-2.15231753 4.7881251 -4.25955133 6.36720166 -6.5625 7.9375 C-7.17158203 8.36740234 -7.78066406 8.79730469 -8.40820312 9.24023438 C-12.47725313 12.0778047 -16.56542093 14.76927235 -21 17 C-21.99 16.67 -22.98 16.34 -24 16 C-16 10.66666667 -8 5.33333333 0 0 Z " fill="#8B1416" transform="translate(597,816)"/>
<path d="M0 0 C0.99 0.33 1.98 0.66 3 1 C-10.6332574 11.55808656 -10.6332574 11.55808656 -17 16 C-17.66 15.67 -18.32 15.34 -19 15 C-15.25258398 11.05310176 -11.29225663 7.79612528 -6.875 4.625 C-6.25496094 4.16222656 -5.63492188 3.69945312 -4.99609375 3.22265625 C-3.38815291 2.06424726 -1.69787374 1.02206159 0 0 Z " fill="#8A1415" transform="translate(611,765)"/>
<path d="M0 0 C0.33 0 0.66 0 1 0 C1 8.58 1 17.16 1 26 C2.98 26.33 4.96 26.66 7 27 C9.42000959 27.86173773 11.66110182 28.92410684 14 30 C14 30.66 14 31.32 14 32 C8.61598274 31.3052881 5.39400929 29.39733746 0 27 C0 18.09 0 9.18 0 0 Z " fill="#820B0C" transform="translate(403,501)"/>
<path d="M0 0 C3.11373372 1.49920512 6.12228205 3.08152136 9 5 C9 5.66 9 6.32 9 7 C9.55171875 7.24492188 10.1034375 7.48984375 10.671875 7.7421875 C13.47639491 9.25738114 15.78103123 11.11084126 18.25 13.125 C19.14203125 13.84945312 20.0340625 14.57390625 20.953125 15.3203125 C21.62859375 15.87460937 22.3040625 16.42890625 23 17 C22.01 17.33 21.02 17.66 20 18 C18.14648438 16.86010742 18.14648438 16.86010742 16.09375 15.10546875 C15.34996094 14.47962891 14.60617187 13.85378906 13.83984375 13.20898438 C13.06769531 12.54189453 12.29554688 11.87480469 11.5 11.1875 C9.96960013 9.88832082 8.43838285 8.59010376 6.90625 7.29296875 C6.22884766 6.7105542 5.55144531 6.12813965 4.85351562 5.52807617 C2.86945486 3.83982429 2.86945486 3.83982429 0 2 C0 1.34 0 0.68 0 0 Z " fill="#881415" transform="translate(364,770)"/>
<path d="M0 0 C3.47239922 0.6335701 6.73869671 1.50078723 10.08203125 2.62890625 C11.01337891 2.94150391 11.94472656 3.25410156 12.90429688 3.57617188 C14.34385742 4.0644043 14.34385742 4.0644043 15.8125 4.5625 C16.79154297 4.89185547 17.77058594 5.22121094 18.77929688 5.56054688 C21.18712669 6.37098715 23.59397496 7.18422054 26 8 C26 8.33 26 8.66 26 9 C19.68253577 8.77437628 14.37530607 7.25593016 8.5 5.0625 C7.78134766 4.79743652 7.06269531 4.53237305 6.32226562 4.25927734 C1.12885011 2.25770021 1.12885011 2.25770021 0 0 Z " fill="#8B1315" transform="translate(610,235)"/>
<path d="M0 0 C1.43229167 1.23697917 2.86458333 2.47395833 4.296875 3.7109375 C8.03277233 6.53856621 11.08541292 7.29181521 15.75 7.625 C16.73484375 7.69976563 17.7196875 7.77453125 18.734375 7.8515625 C19.48203125 7.90054688 20.2296875 7.94953125 21 8 C20.67 8.66 20.34 9.32 20 10 C13.16722068 10.43768693 8.41673144 10.73964001 3 6 C2.38125 5.484375 1.7625 4.96875 1.125 4.4375 C0 3 0 3 0 0 Z " fill="#861012" transform="translate(497,717)"/>
<path d="M0 0 C6.32230422 1.08422589 10.886162 6.61452655 15.0625 11.1875 C17 14 17 14 16.62109375 16.17578125 C16.41613281 16.77777344 16.21117187 17.37976563 16 18 C15.64808594 17.50371094 15.29617188 17.00742187 14.93359375 16.49609375 C11.32936757 11.5367538 7.42477582 7.23192845 3 3 C1.99770906 2.0022962 0.99698343 1.0030075 0 0 Z " fill="#891315" transform="translate(537,297)"/>
<path d="M0 0 C0.66 0.33 1.32 0.66 2 1 C-0.41477568 2.62787116 -2.83170438 4.25237281 -5.25 5.875 C-5.93191406 6.33519531 -6.61382813 6.79539062 -7.31640625 7.26953125 C-7.98027344 7.71425781 -8.64414062 8.15898438 -9.328125 8.6171875 C-9.9355957 9.02565918 -10.54306641 9.43413086 -11.16894531 9.85498047 C-13.0921563 11.05762841 -14.89279535 12.15133778 -17 13 C-17.99 12.67 -18.98 12.34 -20 12 C-17.04247078 10.18618538 -14.08384147 8.37417304 -11.125 6.5625 C-10.28324219 6.04623047 -9.44148437 5.52996094 -8.57421875 4.99804688 C-7.36572266 4.25844727 -7.36572266 4.25844727 -6.1328125 3.50390625 C-5.38918457 3.04830322 -4.64555664 2.5927002 -3.87939453 2.12329102 C-2 1 -2 1 0 0 Z " fill="#891414" transform="translate(566,837)"/>
<path d="M0 0 C4.82376877 2.04082525 6.93159837 5.28635167 9 10 C9.50713086 12.9300894 9.36329899 14.98980841 9 18 C8.34 18.66 7.68 19.32 7 20 C6.87044922 18.80503906 6.87044922 18.80503906 6.73828125 17.5859375 C5.8311157 10.74474411 4.88723039 6.88723039 0 2 C0 1.34 0 0.68 0 0 Z " fill="#8A1315" transform="translate(396,439)"/>
<path d="M0 0 C0 0.66 0 1.32 0 2 C-1.42114258 3.31274414 -1.42114258 3.31274414 -3.39453125 4.78515625 C-4.10287109 5.31560547 -4.81121094 5.84605469 -5.54101562 6.39257812 C-6.29060547 6.94365234 -7.04019531 7.49472656 -7.8125 8.0625 C-8.55048828 8.61744141 -9.28847656 9.17238281 -10.04882812 9.74414062 C-15.5953148 13.86510493 -15.5953148 13.86510493 -19 15 C-17.88693465 11.66080395 -17.20114103 11.11904379 -14.47265625 9.08203125 C-13.76302734 8.55029297 -13.05339844 8.01855469 -12.32226562 7.47070312 C-11.57654297 6.92349609 -10.83082031 6.37628906 -10.0625 5.8125 C-9.32064453 5.25369141 -8.57878906 4.69488281 -7.81445312 4.11914062 C-2.26694139 0 -2.26694139 0 0 0 Z " fill="#891314" transform="translate(636,789)"/>
<path d="M0 0 C-0.99 0.495 -0.99 0.495 -2 1 C-2 1.66 -2 2.32 -2 3 C-2.58007812 3.24234375 -3.16015625 3.4846875 -3.7578125 3.734375 C-8.53486653 5.78393614 -12.77710389 7.96817715 -17 11 C-17 10.01 -17 9.02 -17 8 C-15.5390625 6.68359375 -15.5390625 6.68359375 -13.625 5.4375 C-11.5000063 4.03395478 -9.81307701 2.81307701 -8 1 C-5.07175348 0.02391783 -3.04386724 -0.08226668 0 0 Z " fill="#8D191B" transform="translate(617,455)"/>
<path d="M0 0 C0.33 0 0.66 0 1 0 C1 8.58 1 17.16 1 26 C0.34 26.33 -0.32 26.66 -1 27 C-2.125 20.375 -2.125 20.375 -1 17 C-0.85596652 15.66636297 -0.75409577 14.32781954 -0.68359375 12.98828125 C-0.64169922 12.23095703 -0.59980469 11.47363281 -0.55664062 10.69335938 C-0.51732422 9.90767578 -0.47800781 9.12199219 -0.4375 8.3125 C-0.39431641 7.51521484 -0.35113281 6.71792969 -0.30664062 5.89648438 C-0.20072632 3.93118553 -0.09987449 1.96561504 0 0 Z " fill="#860D0D" transform="translate(496,672)"/>
<path d="M0 0 C0.82193222 2.34057154 1.16347293 3.5589199 0.28735352 5.92285156 C-0.09493408 6.5722168 -0.47722168 7.22158203 -0.87109375 7.890625 C-1.48500977 8.95410156 -1.48500977 8.95410156 -2.11132812 10.0390625 C-2.54896484 10.76867187 -2.98660156 11.49828125 -3.4375 12.25 C-3.87126953 12.99507812 -4.30503906 13.74015625 -4.75195312 14.5078125 C-5.8236443 16.34499737 -6.91039977 18.17337974 -8 20 C-8.66 20 -9.32 20 -10 20 C-8.34229667 15.50675151 -6.15017838 11.38813854 -3.875 7.1875 C-3.50246094 6.49462891 -3.12992188 5.80175781 -2.74609375 5.08789062 C-1.83309623 3.39065164 -0.91687284 1.69514862 0 0 Z " fill="#891516" transform="translate(767,637)"/>
<path d="M0 0 C0.66 0.33 1.32 0.66 2 1 C1.54109375 1.6290625 1.0821875 2.258125 0.609375 2.90625 C-3.12088311 8.10980334 -6.31007071 13.18975274 -9 19 C-10.12331476 16.21470493 -10.07314683 15.18087217 -8.92578125 12.34375 C-8.12720703 10.93609375 -8.12720703 10.93609375 -7.3125 9.5 C-6.53326172 8.09234375 -6.53326172 8.09234375 -5.73828125 6.65625 C-4.04705591 4.07190567 -2.26226819 2.08976408 0 0 Z " fill="#881213" transform="translate(597,467)"/>
<path d="M0 0 C-0.33 0.99 -0.66 1.98 -1 3 C-3.94921875 4.16796875 -3.94921875 4.16796875 -7.6875 5.1875 C-8.90824219 5.53167969 -10.12898438 5.87585938 -11.38671875 6.23046875 C-14.72818473 6.94211069 -17.60001642 7.15145856 -21 7 C-17.49415743 4.66277162 -13.92449951 3.58766828 -9.9375 2.375 C-9.20466797 2.14554688 -8.47183594 1.91609375 -7.71679688 1.6796875 C-2.27280971 0 -2.27280971 0 0 0 Z " fill="#8B1415" transform="translate(393,242)"/>
<path d="M0 0 C-4.95 3.3 -9.9 6.6 -15 10 C-15.66 9.67 -16.32 9.34 -17 9 C-14.45772902 6.12612845 -11.61969096 3.89235572 -8.5 1.6875 C-7.7471875 1.15511719 -6.994375 0.62273438 -6.21875 0.07421875 C-4 -1 -4 -1 0 0 Z " fill="#8A1214" transform="translate(572,796)"/>
<path d="M0 0 C0.66 0 1.32 0 2 0 C2.8427743 2.39287704 3.67437002 4.78871019 4.5 7.1875 C4.73847656 7.86103516 4.97695313 8.53457031 5.22265625 9.22851562 C6.48727592 12.93204467 7.30451221 16.07940536 7 20 C4.94001629 16.91002444 3.71705907 14.01967556 2.375 10.5625 C1.70597656 8.86287109 1.70597656 8.86287109 1.0234375 7.12890625 C0 4 0 4 0 0 Z " fill="#881315" transform="translate(264,572)"/>
<path d="M0 0 C-2.78556882 1.36698387 -5.57931328 2.71634538 -8.375 4.0625 C-9.1690625 4.45244141 -9.963125 4.84238281 -10.78125 5.24414062 C-11.54179688 5.60830078 -12.30234375 5.97246094 -13.0859375 6.34765625 C-14.1385376 6.85824585 -14.1385376 6.85824585 -15.21240234 7.37915039 C-15.80230957 7.58403076 -16.3922168 7.78891113 -17 8 C-17.66 7.67 -18.32 7.34 -19 7 C-5.6290631 -1.78661568 -5.6290631 -1.78661568 0 0 Z " fill="#8A1314" transform="translate(596,586)"/>
<path d="M0 0 C0.33 0.99 0.66 1.98 1 3 C-0.51171875 5.84765625 -0.51171875 5.84765625 -2.6875 9.0625 C-3.39261719 10.12597656 -4.09773437 11.18945312 -4.82421875 12.28515625 C-6.84832046 14.81074097 -8.01353789 15.91462664 -11 17 C-3.70159453 5.47835991 -3.70159453 5.47835991 0 0 Z " fill="#881415" transform="translate(748,670)"/>
<path d="M0 0 C0.33 0 0.66 0 1 0 C1.18451025 16.8929385 1.18451025 16.8929385 0 24 C-0.33 24 -0.66 24 -1 24 C-1.19389096 21.5211787 -1.38040123 19.04219069 -1.5625 16.5625 C-1.61857422 15.85544922 -1.67464844 15.14839844 -1.73242188 14.41992188 C-1.86190993 12.61572163 -1.93521608 10.80768048 -2 9 C-1.67 8.67 -1.34 8.34 -1 8 C-0.76924918 6.65252916 -0.58846937 5.29622435 -0.4375 3.9375 C-0.293125 2.638125 -0.14875 1.33875 0 0 Z " fill="#870E12" transform="translate(221,488)"/>
<path d="M0 0 C0.99 0.33 1.98 0.66 3 1 C1.02 1.99 1.02 1.99 -1 3 C-1 3.66 -1 4.32 -1 5 C-2.6796875 6.5078125 -2.6796875 6.5078125 -4.875 8.125 C-5.95394531 8.93324219 -5.95394531 8.93324219 -7.0546875 9.7578125 C-9 11 -9 11 -11 11 C-9.52934075 7.41477124 -7.59934458 5.55613904 -4.5625 3.1875 C-3.78003906 2.56230469 -2.99757813 1.93710937 -2.19140625 1.29296875 C-1.10666016 0.65294922 -1.10666016 0.65294922 0 0 Z " fill="#891415" transform="translate(626,753)"/>
<path d="M0 0 C3.7602985 0.58107632 6.53035032 1.65199496 9.8125 3.5625 C10.60269531 4.01753906 11.39289062 4.47257813 12.20703125 4.94140625 C12.79871094 5.29074219 13.39039063 5.64007813 14 6 C13.67 6.99 13.34 7.98 13 9 C10.83061859 7.69181533 8.6644848 6.37874076 6.5 5.0625 C5.87996094 4.68931641 5.25992188 4.31613281 4.62109375 3.93164062 C3.06370003 2.9818016 1.5296725 1.99386689 0 1 C0 0.67 0 0.34 0 0 Z " fill="#881315" transform="translate(522,157)"/>
<path d="M0 0 C3.47775179 1.51553404 5.9557984 3.5773456 8.75 6.125 C9.94882812 7.21167969 9.94882812 7.21167969 11.171875 8.3203125 C11.77515625 8.87460937 12.3784375 9.42890625 13 10 C12.67 10.66 12.34 11.32 12 12 C9.99394062 10.38201759 7.99523205 8.75623702 6 7.125 C5.42765625 6.66480469 4.8553125 6.20460938 4.265625 5.73046875 C2.80601181 4.53150078 1.3986243 3.26958455 0 2 C0 1.34 0 0.68 0 0 Z " fill="#861113" transform="translate(384,743)"/>
<path d="M0 0 C0.33 0 0.66 0 1 0 C1.31416607 5.23610116 0.77647622 8.51492303 -2 13 C-2.99 13.495 -2.99 13.495 -4 14 C-3.71831703 12.04020573 -3.42433283 10.08217622 -3.125 8.125 C-2.96257813 7.03445313 -2.80015625 5.94390625 -2.6328125 4.8203125 C-2 2 -2 2 0 0 Z " fill="#871114" transform="translate(679,509)"/>
<path d="M0 0 C6.45458905 -0.45295362 9.68764599 0.25010305 15 4 C16.9375 6.25 16.9375 6.25 18 8 C15 8 15 8 13.0625 6.125 C12.381875 5.42375 11.70125 4.7225 11 4 C7.56570826 1.74994679 4.02937359 1.46492772 0 1 C0 0.67 0 0.34 0 0 Z " fill="#891012" transform="translate(509,321)"/>
<path d="M0 0 C1.77049689 -0.05410687 3.54146849 -0.09284119 5.3125 -0.125 C6.29863281 -0.14820313 7.28476562 -0.17140625 8.30078125 -0.1953125 C11 0 11 0 14 2 C7.62641289 2.96205088 1.44070471 3.10655578 -5 3 C-5 2.67 -5 2.34 -5 2 C-3.35 1.67 -1.7 1.34 0 1 C0 0.67 0 0.34 0 0 Z " fill="#962125" transform="translate(746,263)"/>
<path d="M0 0 C3.62276315 1.3255581 6.63505348 2.94346955 9.8125 5.125 C10.60269531 5.66382813 11.39289063 6.20265625 12.20703125 6.7578125 C12.79871094 7.16773438 13.39039063 7.57765625 14 8 C11 9 11 9 8.5546875 7.890625 C7.67039062 7.34921875 6.78609375 6.8078125 5.875 6.25 C4.98554688 5.71890625 4.09609375 5.1878125 3.1796875 4.640625 C1 3 1 3 0 0 Z " fill="#891314" transform="translate(443,828)"/>
<path d="M0 0 C3 1 3 1 4.16796875 2.85546875 C6.15634622 7.40359654 7.52031483 10.92693038 7 16 C4.81926243 13.81926243 4.39529397 12.5826082 3.5 9.6875 C2.45439825 6.39677369 1.33647729 3.18698431 0 0 Z " fill="#861212" transform="translate(428,427)"/>
<path d="M0 0 C0.99 0.495 0.99 0.495 2 1 C2.3679944 3.51363917 2.60530698 5.9100397 2.75 8.4375 C2.80542969 9.13166016 2.86085938 9.82582031 2.91796875 10.54101562 C3.03400632 12.35717938 3.0247859 14.1803019 3 16 C2.34 16.66 1.68 17.32 1 18 C0.04380267 14.00204108 -0.1039592 10.29196078 -0.0625 6.1875 C-0.05347656 5.02605469 -0.04445313 3.86460937 -0.03515625 2.66796875 C-0.02355469 1.78753906 -0.01195312 0.90710938 0 0 Z " fill="#8A1618" transform="translate(494,399)"/>
<path d="M0 0 C0.99 0.33 1.98 0.66 3 1 C2.01 1.33 1.02 1.66 0 2 C0 2.66 0 3.32 0 4 C-0.66 4 -1.32 4 -2 4 C-2 4.66 -2 5.32 -2 6 C-3.65 6.66 -5.3 7.32 -7 8 C-7 8.66 -7 9.32 -7 10 C-7.66 9.67 -8.32 9.34 -9 9 C-8.06725891 7.87105124 -7.12859878 6.74699124 -6.1875 5.625 C-5.66542969 4.99851562 -5.14335938 4.37203125 -4.60546875 3.7265625 C-3 2 -3 2 0 0 Z " fill="#8A1415" transform="translate(643,739)"/>
<path d="M0 0 C0.33 0.99 0.66 1.98 1 3 C-1.43226526 7.30323854 -4.41897159 10.61791761 -8 14 C-8.66 13.67 -9.32 13.34 -10 13 C-9.36191406 12.22914063 -8.72382812 11.45828125 -8.06640625 10.6640625 C-6.82697266 9.15972656 -6.82697266 9.15972656 -5.5625 7.625 C-4.73878906 6.62726563 -3.91507813 5.62953125 -3.06640625 4.6015625 C-1.01584166 2.20344705 -1.01584166 2.20344705 0 0 Z " fill="#851010" transform="translate(554,359)"/>
<path d="M0 0 C0.66 0.33 1.32 0.66 2 1 C-6.261959 8.66742597 -6.261959 8.66742597 -11 10 C-9.73459948 6.20379845 -8.21781569 5.51321812 -4.9375 3.3125 C-4.01839844 2.68988281 -3.09929687 2.06726563 -2.15234375 1.42578125 C-1.44207031 0.95527344 -0.73179687 0.48476563 0 0 Z " fill="#881213" transform="translate(420,488)"/>
<path d="M0 0 C1.79158489 -0.02696365 3.58328473 -0.04637917 5.375 -0.0625 C6.37273438 -0.07410156 7.37046875 -0.08570313 8.3984375 -0.09765625 C11 0 11 0 13 1 C13 1.66 13 2.32 13 3 C8.71 2.67 4.42 2.34 0 2 C0 1.34 0 0.68 0 0 Z " fill="#891517" transform="translate(507,153)"/>
<path d="M0 0 C4.12838068 0.60711481 7.40422382 1.87522317 11 4 C11.33 4.99 11.66 5.98 12 7 C7.39104317 5.68315519 3.85859765 3.84801255 0 1 C0 0.67 0 0.34 0 0 Z " fill="#881314" transform="translate(492,820)"/>
<path d="M0 0 C-1.7664657 1.0076952 -3.53833823 2.00591714 -5.3125 3 C-6.79169922 3.8353125 -6.79169922 3.8353125 -8.30078125 4.6875 C-11 6 -11 6 -14 6 C-10.04805212 1.59205813 -6.01919869 -1.90694441 0 0 Z " fill="#881112" transform="translate(496,293)"/>
<path d="M0 0 C0.99 0.33 1.98 0.66 3 1 C1.21475351 2.19713017 -0.5784028 3.38247279 -2.375 4.5625 C-3.87160156 5.55443359 -3.87160156 5.55443359 -5.3984375 6.56640625 C-6.25695312 7.03949219 -7.11546875 7.51257813 -8 8 C-8.66 7.67 -9.32 7.34 -10 7 C-7.19527484 3.70032335 -3.83081791 1.91540896 0 0 Z " fill="#871112" transform="translate(534,817)"/>
<path d="M0 0 C0 0.66 0 1.32 0 2 C-1.86328125 3.76171875 -1.86328125 3.76171875 -4.3125 5.6875 C-5.51326172 6.65236328 -5.51326172 6.65236328 -6.73828125 7.63671875 C-7.48464844 8.08660156 -8.23101563 8.53648437 -9 9 C-9.99 8.67 -10.98 8.34 -12 8 C-10.37982158 6.66081194 -8.75370657 5.3288031 -7.125 4 C-6.22007812 3.2575 -5.31515625 2.515 -4.3828125 1.75 C-2 0 -2 0 0 0 Z " fill="#881113" transform="translate(650,778)"/>
<path d="M0 0 C2.14290201 3.21435301 3.48080508 6.45521186 5 10 C5.99 11.485 5.99 11.485 7 13 C6.01 13 5.02 13 4 13 C1.04952165 8.38987758 -0.5497272 5.63470383 0 0 Z " fill="#881213" transform="translate(373,537)"/>
<path d="M0 0 C2.00507927 1.11592209 4.00396096 2.24298712 6 3.375 C7.11375 4.00148438 8.2275 4.62796875 9.375 5.2734375 C10.24125 5.84320312 11.1075 6.41296875 12 7 C12 7.66 12 8.32 12 9 C6.80474854 7.6393389 3.82444243 5.64232612 0 2 C0 1.34 0 0.68 0 0 Z " fill="#8C1416" transform="translate(601,537)"/>
<path d="M0 0 C0.99 0.33 1.98 0.66 3 1 C0.36 4.3 -2.28 7.6 -5 11 C-5.33 10.01 -5.66 9.02 -6 8 C-4.78515625 5.95703125 -4.78515625 5.95703125 -3.0625 3.8125 C-2.49660156 3.09707031 -1.93070313 2.38164063 -1.34765625 1.64453125 C-0.90292969 1.10183594 -0.45820312 0.55914063 0 0 Z " fill="#881315" transform="translate(701,679)"/>
<path d="M0 0 C3 1 3 1 4.16796875 2.99609375 C4.50441406 3.80175781 4.84085937 4.60742188 5.1875 5.4375 C5.53167969 6.24058594 5.87585938 7.04367187 6.23046875 7.87109375 C7 10 7 10 7 12 C6.34 12 5.68 12 5 12 C2.28317615 8.26436721 1.13273539 4.44380808 0 0 Z " fill="#891415" transform="translate(271,594)"/>
<path d="M0 0 C0.66 0 1.32 0 2 0 C1.91266424 1.60517097 1.80447776 3.20921662 1.6875 4.8125 C1.62949219 5.70582031 1.57148438 6.59914063 1.51171875 7.51953125 C1 10 1 10 -2 13 C-2 9.37 -2 5.74 -2 2 C-1.34 2 -0.68 2 0 2 C0 1.34 0 0.68 0 0 Z " fill="#962227" transform="translate(496,331)"/>
<path d="M0 0 C3.63 0 7.26 0 11 0 C10.67 0.66 10.34 1.32 10 2 C2.58823529 3.29411765 2.58823529 3.29411765 0 2 C0 1.34 0 0.68 0 0 Z " fill="#871215" transform="translate(509,865)"/>
<path d="M0 0 C0.99 0.33 1.98 0.66 3 1 C0.36 3.97 -2.28 6.94 -5 10 C-5.33 9.01 -5.66 8.02 -6 7 C-4.78515625 5.17578125 -4.78515625 5.17578125 -3.0625 3.3125 C-2.49660156 2.68988281 -1.93070313 2.06726563 -1.34765625 1.42578125 C-0.90292969 0.95527344 -0.45820312 0.48476563 0 0 Z " fill="#881213" transform="translate(690,692)"/>
<path d="M0 0 C1.12894876 0.93274109 2.25300876 1.87140122 3.375 2.8125 C4.00148438 3.33457031 4.62796875 3.85664063 5.2734375 4.39453125 C7 6 7 6 9 9 C4.74822077 8.52758009 2.70030797 6.15035929 0 3 C0 2.01 0 1.02 0 0 Z " fill="#861113" transform="translate(473,366)"/>
<path d="M0 0 C0 0.99 0 1.98 0 3 C-1.64453125 4.640625 -1.64453125 4.640625 -3.8125 6.25 C-4.52019531 6.79140625 -5.22789062 7.3328125 -5.95703125 7.890625 C-6.96830078 8.43976562 -6.96830078 8.43976562 -8 9 C-8.99 8.67 -9.98 8.34 -11 8 C-7.37 5.36 -3.74 2.72 0 0 Z " fill="#891213" transform="translate(614,804)"/>
<path d="M0 0 C3.59905908 0.55550695 4.99909799 1.74887248 7.25 4.5625 C8.03117187 5.52349609 8.03117187 5.52349609 8.828125 6.50390625 C9.21484375 6.99761719 9.6015625 7.49132812 10 8 C4.98886765 6.5682479 3.05530451 4.01554307 0 0 Z " fill="#8B1414" transform="translate(364,726)"/>
<path d="M0 0 C0.66 0 1.32 0 2 0 C1.46274105 3.37705625 0.88935377 6.696686 0 10 C-0.66 10 -1.32 10 -2 10 C-2.33 8.35 -2.66 6.7 -3 5 C-2.34 5 -1.68 5 -1 5 C-0.67 3.35 -0.34 1.7 0 0 Z " fill="#8A1415" transform="translate(467,315)"/>
<path d="M0 0 C0.99 0.33 1.98 0.66 3 1 C2.04270084 2.12588014 1.08412105 3.2506715 0.125 4.375 C-0.40867187 5.00148438 -0.94234375 5.62796875 -1.4921875 6.2734375 C-2.61432007 7.55836651 -3.79371975 8.79371975 -5 10 C-4.49701212 5.59885603 -2.91227269 3.28804981 0 0 Z " fill="#881213" transform="translate(475,304)"/>
<path d="M0 0 C8.57142857 0.85714286 8.57142857 0.85714286 12 3 C8.69564916 4.12377697 6.9493138 3.89554742 3.75 2.5625 C3.04359375 2.27503906 2.3371875 1.98757812 1.609375 1.69140625 C1.07828125 1.46324219 0.5471875 1.23507813 0 1 C0 0.67 0 0.34 0 0 Z " fill="#871316" transform="translate(636,209)"/>
<path d="M0 0 C3.81684226 1.55500981 6.19195732 4.03595495 9 7 C8.01 7.495 8.01 7.495 7 8 C1.125 3.375 1.125 3.375 0 0 Z " fill="#8A1316" transform="translate(617,508)"/>
<path d="M0 0 C0.33 0 0.66 0 1 0 C0.67 3.96 0.34 7.92 0 12 C-2 10 -2 10 -2.01171875 7.87109375 C-1.90472656 7.06800781 -1.79773438 6.26492188 -1.6875 5.4375 C-1.58824219 4.63183594 -1.48898437 3.82617188 -1.38671875 2.99609375 C-1 1 -1 1 0 0 Z " fill="#860E10" transform="translate(617,494)"/>
<path d="M0 0 C3.99455527 0.61454696 6.74466336 2.70646737 10 5 C9.34 5.66 8.68 6.32 8 7 C6.66382648 6.02471263 5.3311249 5.04466681 4 4.0625 C3.2575 3.51722656 2.515 2.97195313 1.75 2.41015625 C1.1725 1.94480469 0.595 1.47945312 0 1 C0 0.67 0 0.34 0 0 Z " fill="#891214" transform="translate(426,777)"/>
<path d="M0 0 C4.24822374 0.47202486 6.19989709 2.96655518 9 6 C8.67 6.66 8.34 7.32 8 8 C6.66372225 6.85760183 5.33104612 5.71098945 4 4.5625 C3.2575 3.92441406 2.515 3.28632812 1.75 2.62890625 C1.1725 2.09136719 0.595 1.55382812 0 1 C0 0.67 0 0.34 0 0 Z " fill="#871112" transform="translate(374,735)"/>
<path d="M0 0 C3.39417765 3.12621626 5.6062718 5.56541027 7 10 C4.09197539 7.78071806 2.04687238 6.07030857 0 3 C0 2.01 0 1.02 0 0 Z " fill="#881213" transform="translate(288,689)"/>
<path d="M0 0 C3.79588866 0.54226981 5.47211993 2.20127563 8 5 C7.67 5.99 7.34 6.98 7 8 C5.83035398 6.8572081 4.66435444 5.71068285 3.5 4.5625 C2.8503125 3.92441406 2.200625 3.28632813 1.53125 2.62890625 C0 1 0 1 0 0 Z " fill="#881315" transform="translate(418,416)"/>
<path d="M0 0 C1 3 1 3 0.22265625 4.82421875 C-0.8515625 6.54947917 -1.92578125 8.27473958 -3 10 C-3.66 10 -4.32 10 -5 10 C-3.84414715 6.08788267 -2.64465038 3.1254959 0 0 Z " fill="#871213" transform="translate(755,659)"/>
<path d="M0 0 C-2.38457948 1.58971965 -4.6304124 2.86741593 -7.1875 4.125 C-7.90292969 4.47820312 -8.61835937 4.83140625 -9.35546875 5.1953125 C-9.89816406 5.46085937 -10.44085937 5.72640625 -11 6 C-9.2265625 2.15625 -9.2265625 2.15625 -7.1875 0.75 C-4.67678635 -0.11081611 -2.63651351 -0.14647297 0 0 Z " fill="#881113" transform="translate(632,484)"/>
<path d="M0 0 C0.61488281 0.19078125 1.22976563 0.3815625 1.86328125 0.578125 C0.74254263 1.41718065 -0.38346422 2.24920331 -1.51171875 3.078125 C-2.13820313 3.5421875 -2.7646875 4.00625 -3.41015625 4.484375 C-5.13671875 5.578125 -5.13671875 5.578125 -7.13671875 5.578125 C-5.92340024 1.93816948 -4.18071525 -0.82544286 0 0 Z " fill="#8A1214" transform="translate(586.13671875,784.421875)"/>
<path d="M0 0 C0.66 0 1.32 0 2 0 C0.71700242 2.86207152 -0.530636 5.0245088 -3 7 C-3.99 7 -4.98 7 -6 7 C-6 6.34 -6 5.68 -6 5 C-5.38125 4.731875 -4.7625 4.46375 -4.125 4.1875 C-1.7004767 3.04443152 -1.7004767 3.04443152 0 0 Z " fill="#891415" transform="translate(525,718)"/>
<path d="M0 0 C3.53586014 3.17320782 5.58578031 5.16743695 6 10 C2.51668565 6.98112756 1.20842856 4.43090471 0 0 Z " fill="#851011" transform="translate(297,644)"/>
<path d="M0 0 C0.66 0.33 1.32 0.66 2 1 C-2.296875 5.00390625 -2.296875 5.00390625 -4 6 C-6.203125 5.65234375 -6.203125 5.65234375 -8 5 C-6.71475739 4.13619741 -5.42157581 3.28419631 -4.125 2.4375 C-3.04605469 1.72400391 -3.04605469 1.72400391 -1.9453125 0.99609375 C-1.30335938 0.66738281 -0.66140625 0.33867188 0 0 Z " fill="#881212" transform="translate(662,538)"/>
<path d="M0 0 C0.66 0.33 1.32 0.66 2 1 C-0.54456151 3.96865509 -3.48994665 5.3619751 -7 7 C-5.55609075 3.19333016 -3.65047197 1.73397418 0 0 Z " fill="#8A1718" transform="translate(365,409)"/>
<path d="M0 0 C4.21912747 0.4794463 6.79663178 1.16625119 10 4 C5.66905042 4 3.72965139 3.03435531 0 1 C0 0.67 0 0.34 0 0 Z " fill="#891416" transform="translate(527,292)"/>
<path d="M0 0 C3.79588866 0.54226981 5.47211993 2.20127563 8 5 C5 5 5 5 2.3125 2.5 C1.549375 1.675 0.78625 0.85 0 0 Z " fill="#8A1517" transform="translate(418,771)"/>
<path d="M0 0 C0.33 0.99 0.66 1.98 1 3 C-0.65 4.65 -2.3 6.3 -4 8 C-4.66 7.67 -5.32 7.34 -6 7 C-4.02 4.69 -2.04 2.38 0 0 Z " fill="#881212" transform="translate(719,709)"/>
<path d="M0 0 C3.12290635 0.48578543 5.99580359 0.9986012 9 2 C9 2.66 9 3.32 9 4 C3.46153846 3.38461538 3.46153846 3.38461538 1.125 1.4375 C0.75375 0.963125 0.3825 0.48875 0 0 Z " fill="#881214" transform="translate(467,555)"/>
<path d="M0 0 C2.475 0.495 2.475 0.495 5 1 C4.67 3.64 4.34 6.28 4 9 C3.67 9 3.34 9 3 9 C2.87625 8.030625 2.7525 7.06125 2.625 6.0625 C2.41875 5.051875 2.2125 4.04125 2 3 C1.34 2.67 0.68 2.34 0 2 C0 1.34 0 0.68 0 0 Z " fill="#982529" transform="translate(613,545)"/>
<path d="M0 0 C0.66 0 1.32 0 2 0 C2.33 2.31 2.66 4.62 3 7 C2.01 7.66 1.02 8.32 0 9 C0 6.03 0 3.06 0 0 Z " fill="#851113" transform="translate(585,487)"/>
<path d="M0 0 C2.31 1.98 4.62 3.96 7 6 C6.01 6.33 5.02 6.66 4 7 C2 5.1875 2 5.1875 0 3 C0 2.01 0 1.02 0 0 Z " fill="#8B1315" transform="translate(351,484)"/>
<path d="M0 0 C0.6875 1.6875 0.6875 1.6875 1 4 C-0.3125 6.75 -0.3125 6.75 -2 9 C-2.66 9 -3.32 9 -4 9 C-2.80100302 5.9168649 -1.52299523 2.93720508 0 0 Z " fill="#861213" transform="translate(432,471)"/>
<path d="M0 0 C0.99 0.33 1.98 0.66 3 1 C-1.455 3.97 -1.455 3.97 -6 7 C-6 6.01 -6 5.02 -6 4 C-3.1875 1.75 -3.1875 1.75 0 0 Z " fill="#871111" transform="translate(606,459)"/>
<path d="M0 0 C0.33 0 0.66 0 1 0 C1.36552803 1.41377782 1.71695495 2.83120576 2.0625 4.25 C2.25972656 5.03890625 2.45695312 5.8278125 2.66015625 6.640625 C3.01497267 9.10394822 2.76877544 10.65604132 2 13 C-0.20914 9.68629 -0.22481553 8.6553979 -0.125 4.8125 C-0.10695313 3.91144531 -0.08890625 3.01039063 -0.0703125 2.08203125 C-0.04710937 1.39496094 -0.02390625 0.70789063 0 0 Z " fill="#83090A" transform="translate(495,334)"/>
<path d="M0 0 C6.52307692 0.61538462 6.52307692 0.61538462 8.9375 2.5625 C9.288125 3.036875 9.63875 3.51125 10 4 C6.13304322 4 3.4911548 2.58090029 0 1 C0 0.67 0 0.34 0 0 Z " fill="#871313" transform="translate(789,233)"/>
<path d="M0 0 C3.37462715 0.54723683 5.08235 1.0549 8 3 C8 3.66 8 4.32 8 5 C2.25 3.125 2.25 3.125 0 2 C0 1.34 0 0.68 0 0 Z " fill="#891516" transform="translate(540,167)"/>
<path d="M0 0 C3.48539917 0.64544429 6.02819057 2.10134397 9 4 C7.3125 4.8125 7.3125 4.8125 5 5 C2.25 2.5625 2.25 2.5625 0 0 Z " fill="#881214" transform="translate(448,792)"/>
<path d="M0 0 C2.66735273 2.48952921 4.55746343 4.63408134 6 8 C5.01 8 4.02 8 3 8 C0.89229241 5.11165997 0 3.61537605 0 0 Z " fill="#881315" transform="translate(273,667)"/>
<path d="M0 0 C4.31392226 0.4793247 6.16569547 1.7457985 9 5 C5.51694958 4.35499066 2.93797836 2.95865224 0 1 C0 0.67 0 0.34 0 0 Z " fill="#871214" transform="translate(409,410)"/>
<path d="M0 0 C6.52307692 -0.36923077 6.52307692 -0.36923077 8.9375 1.5 C9.288125 1.995 9.63875 2.49 10 3 C4.58461538 3.36923077 4.58461538 3.36923077 1.625 1.5 C1.08875 1.005 0.5525 0.51 0 0 Z " fill="#952327" transform="translate(293,228)"/>
<path d="M0 0 C0.99 0.495 0.99 0.495 2 1 C2 1.66 2 2.32 2 3 C1.34 3 0.68 3 0 3 C0 2.01 0 1.02 0 0 Z " fill="#A43537" transform="translate(264,658)"/>
<path d="M0 0 C1 4 1 4 1 4 Z " fill="#A63336" transform="translate(768,497)"/>
<path d="M0 0 C1 4 1 4 1 4 Z " fill="#A53336" transform="translate(768,489)"/>
<path d="M0 0 C1 4 1 4 1 4 Z " fill="#A43235" transform="translate(768,473)"/>
<path d="M0 0 C1 4 1 4 1 4 Z " fill="#A43234" transform="translate(768,344)"/>
<path d="M0 0 C1 4 1 4 1 4 Z " fill="#A33235" transform="translate(768,281)"/>
<path d="" fill="#A23437" transform="translate(0,0)"/>
<path d="" fill="#A33437" transform="translate(0,0)"/>
<path d="M0 0 C0.99 0.495 0.99 0.495 2 1 C1.01 1.495 1.01 1.495 0 2 C0 1.34 0 0.68 0 0 Z " fill="#A22F32" transform="translate(406,500)"/>
<path d="M0 0 C3 1 3 1 3 1 Z " fill="#A23235" transform="translate(628,487)"/>
<path d="" fill="#A63438" transform="translate(0,0)"/>
<path d="" fill="#A43235" transform="translate(0,0)"/>
<path d="M0 0 C3 1 3 1 3 1 Z " fill="#A22D31" transform="translate(509,324)"/>
<path d="" fill="#A43035" transform="translate(0,0)"/>
<path d="M0 0 C3 1 3 1 3 1 Z " fill="#A63237" transform="translate(696,261)"/>
<path d="M0 0 C2 1 2 1 2 1 Z " fill="#A13032" transform="translate(528,818)"/>
<path d="M0 0 C2 1 2 1 2 1 Z " fill="#A03235" transform="translate(545,808)"/>
<path d="" fill="#A13638" transform="translate(0,0)"/>
<path d="" fill="#A43639" transform="translate(0,0)"/>
<path d="M0 0 C2 1 2 1 2 1 Z " fill="#A63035" transform="translate(474,597)"/>
<path d="" fill="#A03337" transform="translate(0,0)"/>
<path d="" fill="#A13739" transform="translate(0,0)"/>
<path d="M0 0 C2 1 2 1 2 1 Z " fill="#A53135" transform="translate(402,565)"/>
<path d="M0 0 C2 1 2 1 2 1 Z " fill="#A03235" transform="translate(485,560)"/>
<path d="M0 0 C2 1 2 1 2 1 Z " fill="#A53233" transform="translate(613,548)"/>
<path d="M0 0 C2 1 2 1 2 1 Z " fill="#A03436" transform="translate(430,536)"/>
<path d="M0 0 C2 1 2 1 2 1 Z " fill="#A13336" transform="translate(412,528)"/>
<path d="" fill="#A53336" transform="translate(0,0)"/>
<path d="M0 0 C2 1 2 1 2 1 Z " fill="#A53436" transform="translate(352,491)"/>
<path d="" fill="#A33234" transform="translate(0,0)"/>
<path d="" fill="#A33236" transform="translate(0,0)"/>
<path d="M0 0 C2 1 2 1 2 1 Z " fill="#A43437" transform="translate(336,469)"/>
<path d="" fill="#A43236" transform="translate(0,0)"/>
<path d="" fill="#A23337" transform="translate(0,0)"/>
<path d="" fill="#A43337" transform="translate(0,0)"/>
<path d="" fill="#A33338" transform="translate(0,0)"/>
<path d="" fill="#A33237" transform="translate(0,0)"/>
<path d="M0 0 C2 1 2 1 2 1 Z " fill="#A53738" transform="translate(641,450)"/>
<path d="" fill="#A33135" transform="translate(0,0)"/>
<path d="" fill="#A53336" transform="translate(0,0)"/>
<path d="" fill="#A33133" transform="translate(0,0)"/>
<path d="" fill="#A23134" transform="translate(0,0)"/>
<path d="M0 0 C2 1 2 1 2 1 Z " fill="#A42E31" transform="translate(514,324)"/>
<path d="" fill="#A33234" transform="translate(0,0)"/>
<path d="" fill="#A33135" transform="translate(0,0)"/>
<path d="" fill="#A43437" transform="translate(0,0)"/>
<path d="M0 0 C2 1 2 1 2 1 Z " fill="#A63335" transform="translate(274,267)"/>
<path d="M0 0 C2 1 2 1 2 1 Z " fill="#A53536" transform="translate(357,255)"/>
<path d="M0 0 C2 1 2 1 2 1 Z " fill="#A63437" transform="translate(624,243)"/>
<path d="M0 0 C2 1 2 1 2 1 Z " fill="#A53435" transform="translate(436,229)"/>
<path d="M0 0 C2 1 2 1 2 1 Z " fill="#A3393B" transform="translate(735,227)"/>
<path d="M0 0 C2 1 2 1 2 1 Z " fill="#A43839" transform="translate(368,211)"/>
<path d="M0 0 C2 1 2 1 2 1 Z " fill="#A13839" transform="translate(425,192)"/>
<path d="M0 0 C2 1 2 1 2 1 Z " fill="#A0383B" transform="translate(489,160)"/>
<path d="" fill="#856B65" transform="translate(0,0)"/>
<path d="" fill="#A23B3E" transform="translate(0,0)"/>
<path d="" fill="#A43C3F" transform="translate(0,0)"/>
<path d="" fill="#A3353B" transform="translate(0,0)"/>
<path d="" fill="#A23738" transform="translate(0,0)"/>
<path d="" fill="#A33537" transform="translate(0,0)"/>
<path d="" fill="#A13439" transform="translate(0,0)"/>
<path d="" fill="#A13738" transform="translate(0,0)"/>
<path d="" fill="#A13537" transform="translate(0,0)"/>
<path d="" fill="#A33638" transform="translate(0,0)"/>
<path d="" fill="#A53637" transform="translate(0,0)"/>
<path d="" fill="#A33839" transform="translate(0,0)"/>
<path d="" fill="#A13233" transform="translate(0,0)"/>
<path d="" fill="#A23335" transform="translate(0,0)"/>
<path d="" fill="#A03133" transform="translate(0,0)"/>
<path d="" fill="#9E3032" transform="translate(0,0)"/>
<path d="" fill="#A33436" transform="translate(0,0)"/>
<path d="" fill="#A23437" transform="translate(0,0)"/>
<path d="" fill="#A13337" transform="translate(0,0)"/>
<path d="" fill="#A13438" transform="translate(0,0)"/>
<path d="" fill="#A43134" transform="translate(0,0)"/>
<path d="" fill="#A23537" transform="translate(0,0)"/>
<path d="" fill="#A43436" transform="translate(0,0)"/>
<path d="" fill="#A23135" transform="translate(0,0)"/>
<path d="" fill="#A2333B" transform="translate(0,0)"/>
<path d="" fill="#A13535" transform="translate(0,0)"/>
<path d="" fill="#A03035" transform="translate(0,0)"/>
<path d="" fill="#A32F32" transform="translate(0,0)"/>
<path d="" fill="#A33335" transform="translate(0,0)"/>
<path d="" fill="#9F3135" transform="translate(0,0)"/>
<path d="" fill="#A03235" transform="translate(0,0)"/>
<path d="" fill="#A13435" transform="translate(0,0)"/>
<path d="" fill="#A13336" transform="translate(0,0)"/>
<path d="" fill="#9F3438" transform="translate(0,0)"/>
<path d="" fill="#A23435" transform="translate(0,0)"/>
<path d="" fill="#A43436" transform="translate(0,0)"/>
<path d="" fill="#A33435" transform="translate(0,0)"/>
<path d="" fill="#A03235" transform="translate(0,0)"/>
<path d="" fill="#A03437" transform="translate(0,0)"/>
<path d="" fill="#9F3335" transform="translate(0,0)"/>
<path d="" fill="#9E3435" transform="translate(0,0)"/>
<path d="" fill="#9E3335" transform="translate(0,0)"/>
<path d="" fill="#A23336" transform="translate(0,0)"/>
<path d="" fill="#A23335" transform="translate(0,0)"/>
<path d="" fill="#A33335" transform="translate(0,0)"/>
<path d="" fill="#A13736" transform="translate(0,0)"/>
<path d="" fill="#A23536" transform="translate(0,0)"/>
<path d="" fill="#9F373A" transform="translate(0,0)"/>
<path d="" fill="#A23333" transform="translate(0,0)"/>
<path d="" fill="#9F373A" transform="translate(0,0)"/>
<path d="" fill="#A23639" transform="translate(0,0)"/>
<path d="" fill="#A13739" transform="translate(0,0)"/>
<path d="" fill="#A13639" transform="translate(0,0)"/>
<path d="" fill="#A13339" transform="translate(0,0)"/>
<path d="" fill="#A73638" transform="translate(0,0)"/>
<path d="" fill="#A23739" transform="translate(0,0)"/>
<path d="" fill="#A33637" transform="translate(0,0)"/>
<path d="" fill="#A63637" transform="translate(0,0)"/>
<path d="" fill="#A33236" transform="translate(0,0)"/>
<path d="" fill="#A03538" transform="translate(0,0)"/>
<path d="" fill="#A23738" transform="translate(0,0)"/>
<path d="" fill="#A43539" transform="translate(0,0)"/>
<path d="" fill="#9E3336" transform="translate(0,0)"/>
<path d="" fill="#9F3437" transform="translate(0,0)"/>
<path d="" fill="#A33535" transform="translate(0,0)"/>
<path d="" fill="#A0383B" transform="translate(0,0)"/>
<path d="" fill="#A83437" transform="translate(0,0)"/>
<path d="" fill="#A43436" transform="translate(0,0)"/>
<path d="" fill="#A53436" transform="translate(0,0)"/>
<path d="" fill="#A62F35" transform="translate(0,0)"/>
<path d="" fill="#A33638" transform="translate(0,0)"/>
<path d="" fill="#A6393A" transform="translate(0,0)"/>
<path d="" fill="#A73334" transform="translate(0,0)"/>
<path d="" fill="#A13133" transform="translate(0,0)"/>
<path d="" fill="#A33839" transform="translate(0,0)"/>
<path d="" fill="#A3363A" transform="translate(0,0)"/>
<path d="" fill="#A73436" transform="translate(0,0)"/>
<path d="" fill="#A53639" transform="translate(0,0)"/>
<path d="" fill="#9F3435" transform="translate(0,0)"/>
<path d="" fill="#A0353B" transform="translate(0,0)"/>
<path d="" fill="#A83638" transform="translate(0,0)"/>
<path d="" fill="#A83335" transform="translate(0,0)"/>
<path d="" fill="#A63437" transform="translate(0,0)"/>
<path d="" fill="#A23536" transform="translate(0,0)"/>
<path d="" fill="#A2363A" transform="translate(0,0)"/>
<path d="" fill="#A73235" transform="translate(0,0)"/>
<path d="" fill="#A63136" transform="translate(0,0)"/>
<path d="" fill="#A33438" transform="translate(0,0)"/>
<path d="" fill="#A53434" transform="translate(0,0)"/>
<path d="" fill="#9F343A" transform="translate(0,0)"/>
<path d="" fill="#A53332" transform="translate(0,0)"/>
<path d="" fill="#A33032" transform="translate(0,0)"/>
<path d="" fill="#A63133" transform="translate(0,0)"/>
<path d="" fill="#A73236" transform="translate(0,0)"/>
<path d="" fill="#A43333" transform="translate(0,0)"/>
<path d="" fill="#A43134" transform="translate(0,0)"/>
<path d="" fill="#A43132" transform="translate(0,0)"/>
<path d="" fill="#A33538" transform="translate(0,0)"/>
<path d="" fill="#A63436" transform="translate(0,0)"/>
<path d="" fill="#A63436" transform="translate(0,0)"/>
<path d="" fill="#A23538" transform="translate(0,0)"/>
<path d="" fill="#A53134" transform="translate(0,0)"/>
<path d="" fill="#A4383B" transform="translate(0,0)"/>
<path d="" fill="#A63335" transform="translate(0,0)"/>
<path d="" fill="#A1333A" transform="translate(0,0)"/>
<path d="" fill="#A43335" transform="translate(0,0)"/>
<path d="" fill="#A3373A" transform="translate(0,0)"/>
<path d="" fill="#A42F33" transform="translate(0,0)"/>
<path d="" fill="#A53235" transform="translate(0,0)"/>
<path d="" fill="#A2383B" transform="translate(0,0)"/>
<path d="" fill="#A23036" transform="translate(0,0)"/>
<path d="" fill="#9C2F32" transform="translate(0,0)"/>
<path d="" fill="#9F3336" transform="translate(0,0)"/>
<path d="" fill="#A53338" transform="translate(0,0)"/>
<path d="" fill="#9E3135" transform="translate(0,0)"/>
<path d="" fill="#A53536" transform="translate(0,0)"/>
<path d="" fill="#A23033" transform="translate(0,0)"/>
<path d="" fill="#A53539" transform="translate(0,0)"/>
<path d="" fill="#A53439" transform="translate(0,0)"/>
<path d="" fill="#A7383B" transform="translate(0,0)"/>
<path d="" fill="#A43135" transform="translate(0,0)"/>
<path d="" fill="#A53536" transform="translate(0,0)"/>
<path d="" fill="#A73236" transform="translate(0,0)"/>
<path d="" fill="#A23035" transform="translate(0,0)"/>
<path d="" fill="#A33338" transform="translate(0,0)"/>
<path d="" fill="#A23138" transform="translate(0,0)"/>
<path d="" fill="#A73437" transform="translate(0,0)"/>
<path d="" fill="#A4373A" transform="translate(0,0)"/>
<path d="" fill="#A3383A" transform="translate(0,0)"/>
<path d="" fill="#A33438" transform="translate(0,0)"/>
<path d="" fill="#A73538" transform="translate(0,0)"/>
<path d="" fill="#A33136" transform="translate(0,0)"/>
<path d="" fill="#A13638" transform="translate(0,0)"/>
<path d="" fill="#A63537" transform="translate(0,0)"/>
<path d="" fill="#A63439" transform="translate(0,0)"/>
<path d="" fill="#A53437" transform="translate(0,0)"/>
<path d="" fill="#A63438" transform="translate(0,0)"/>
<path d="" fill="#A53033" transform="translate(0,0)"/>
<path d="" fill="#A53536" transform="translate(0,0)"/>
<path d="" fill="#A13338" transform="translate(0,0)"/>
<path d="" fill="#A53138" transform="translate(0,0)"/>
<path d="" fill="#A63538" transform="translate(0,0)"/>
<path d="" fill="#A83437" transform="translate(0,0)"/>
<path d="" fill="#A43739" transform="translate(0,0)"/>
<path d="" fill="#A53237" transform="translate(0,0)"/>
<path d="" fill="#A23539" transform="translate(0,0)"/>
<path d="" fill="#A33334" transform="translate(0,0)"/>
<path d="" fill="#9F3137" transform="translate(0,0)"/>
<path d="" fill="#A33234" transform="translate(0,0)"/>
<path d="" fill="#A23033" transform="translate(0,0)"/>
<path d="" fill="#A03435" transform="translate(0,0)"/>
<path d="" fill="#A13236" transform="translate(0,0)"/>
<path d="" fill="#A53336" transform="translate(0,0)"/>
<path d="" fill="#A83637" transform="translate(0,0)"/>
<path d="" fill="#A43437" transform="translate(0,0)"/>
<path d="" fill="#A23236" transform="translate(0,0)"/>
<path d="" fill="#A13234" transform="translate(0,0)"/>
<path d="" fill="#A53235" transform="translate(0,0)"/>
<path d="" fill="#A43235" transform="translate(0,0)"/>
<path d="" fill="#A7373A" transform="translate(0,0)"/>
<path d="" fill="#A53135" transform="translate(0,0)"/>
<path d="" fill="#A23334" transform="translate(0,0)"/>
<path d="" fill="#A73437" transform="translate(0,0)"/>
<path d="" fill="#A03035" transform="translate(0,0)"/>
<path d="" fill="#A43536" transform="translate(0,0)"/>
<path d="" fill="#A7373A" transform="translate(0,0)"/>
<path d="" fill="#A63637" transform="translate(0,0)"/>
<path d="" fill="#A83839" transform="translate(0,0)"/>
<path d="" fill="#A73739" transform="translate(0,0)"/>
<path d="" fill="#A33335" transform="translate(0,0)"/>
<path d="" fill="#A73436" transform="translate(0,0)"/>
<path d="" fill="#A13034" transform="translate(0,0)"/>
<path d="" fill="#A83839" transform="translate(0,0)"/>
<path d="" fill="#A43237" transform="translate(0,0)"/>
<path d="" fill="#A43437" transform="translate(0,0)"/>
<path d="" fill="#A13235" transform="translate(0,0)"/>
<path d="" fill="#A33439" transform="translate(0,0)"/>
<path d="" fill="#A43537" transform="translate(0,0)"/>
<path d="" fill="#A63334" transform="translate(0,0)"/>
<path d="" fill="#A53437" transform="translate(0,0)"/>
<path d="" fill="#A63437" transform="translate(0,0)"/>
<path d="" fill="#A53237" transform="translate(0,0)"/>
<path d="" fill="#A83737" transform="translate(0,0)"/>
<path d="" fill="#A63839" transform="translate(0,0)"/>
<path d="" fill="#A73438" transform="translate(0,0)"/>
<path d="" fill="#A73437" transform="translate(0,0)"/>
<path d="" fill="#A42F32" transform="translate(0,0)"/>
<path d="" fill="#A53537" transform="translate(0,0)"/>
<path d="" fill="#A53538" transform="translate(0,0)"/>
<path d="" fill="#A53436" transform="translate(0,0)"/>
<path d="" fill="#A63437" transform="translate(0,0)"/>
<path d="" fill="#A43535" transform="translate(0,0)"/>
<path d="" fill="#A43336" transform="translate(0,0)"/>
<path d="" fill="#A33335" transform="translate(0,0)"/>
<path d="" fill="#A73539" transform="translate(0,0)"/>
<path d="" fill="#A23338" transform="translate(0,0)"/>
<path d="" fill="#A13236" transform="translate(0,0)"/>
<path d="" fill="#A73538" transform="translate(0,0)"/>
<path d="" fill="#A03438" transform="translate(0,0)"/>
<path d="" fill="#A23337" transform="translate(0,0)"/>
<path d="" fill="#A53337" transform="translate(0,0)"/>
<path d="" fill="#A53435" transform="translate(0,0)"/>
<path d="" fill="#A43637" transform="translate(0,0)"/>
<path d="" fill="#A63437" transform="translate(0,0)"/>
<path d="" fill="#A33032" transform="translate(0,0)"/>
<path d="" fill="#A73436" transform="translate(0,0)"/>
<path d="" fill="#A63335" transform="translate(0,0)"/>
<path d="" fill="#A43133" transform="translate(0,0)"/>
<path d="" fill="#A13235" transform="translate(0,0)"/>
<path d="" fill="#A03235" transform="translate(0,0)"/>
<path d="" fill="#A4363C" transform="translate(0,0)"/>
<path d="" fill="#A23235" transform="translate(0,0)"/>
<path d="" fill="#A63437" transform="translate(0,0)"/>
<path d="" fill="#A43336" transform="translate(0,0)"/>
<path d="" fill="#A43436" transform="translate(0,0)"/>
<path d="" fill="#A63334" transform="translate(0,0)"/>
<path d="" fill="#A43135" transform="translate(0,0)"/>
<path d="" fill="#A43236" transform="translate(0,0)"/>
<path d="" fill="#A43234" transform="translate(0,0)"/>
<path d="" fill="#A53134" transform="translate(0,0)"/>
<path d="" fill="#A13134" transform="translate(0,0)"/>
<path d="" fill="#A63234" transform="translate(0,0)"/>
<path d="" fill="#A43133" transform="translate(0,0)"/>
<path d="" fill="#A1363A" transform="translate(0,0)"/>
<path d="" fill="#A43335" transform="translate(0,0)"/>
<path d="" fill="#9F3436" transform="translate(0,0)"/>
<path d="" fill="#9E3238" transform="translate(0,0)"/>
<path d="" fill="#A13139" transform="translate(0,0)"/>
<path d="" fill="#A43234" transform="translate(0,0)"/>
<path d="" fill="#A43437" transform="translate(0,0)"/>
<path d="" fill="#A23235" transform="translate(0,0)"/>
<path d="" fill="#9F3236" transform="translate(0,0)"/>
<path d="" fill="#A03334" transform="translate(0,0)"/>
<path d="" fill="#A33335" transform="translate(0,0)"/>
<path d="" fill="#A83537" transform="translate(0,0)"/>
<path d="" fill="#A73336" transform="translate(0,0)"/>
<path d="" fill="#A63337" transform="translate(0,0)"/>
<path d="" fill="#A63638" transform="translate(0,0)"/>
<path d="" fill="#A43437" transform="translate(0,0)"/>
<path d="" fill="#A43235" transform="translate(0,0)"/>
<path d="" fill="#A73535" transform="translate(0,0)"/>
<path d="" fill="#A43235" transform="translate(0,0)"/>
<path d="" fill="#A63536" transform="translate(0,0)"/>
<path d="" fill="#A63235" transform="translate(0,0)"/>
<path d="" fill="#A43437" transform="translate(0,0)"/>
<path d="" fill="#A13236" transform="translate(0,0)"/>
<path d="" fill="#A63437" transform="translate(0,0)"/>
<path d="" fill="#A63136" transform="translate(0,0)"/>
<path d="" fill="#A53238" transform="translate(0,0)"/>
<path d="" fill="#A63336" transform="translate(0,0)"/>
<path d="" fill="#A73536" transform="translate(0,0)"/>
<path d="" fill="#A63237" transform="translate(0,0)"/>
<path d="" fill="#A24244" transform="translate(0,0)"/>
<path d="" fill="#A64341" transform="translate(0,0)"/>
<path d="" fill="#A23C41" transform="translate(0,0)"/>
<path d="" fill="#A63537" transform="translate(0,0)"/>
<path d="" fill="#A73539" transform="translate(0,0)"/>
<path d="" fill="#A13F41" transform="translate(0,0)"/>
<path d="" fill="#A63436" transform="translate(0,0)"/>
<path d="" fill="#A53B3B" transform="translate(0,0)"/>
<path d="" fill="#A73234" transform="translate(0,0)"/>
<path d="" fill="#A3383A" transform="translate(0,0)"/>
<path d="" fill="#A0373A" transform="translate(0,0)"/>
<path d="" fill="#A33939" transform="translate(0,0)"/>
<path d="" fill="#9E3235" transform="translate(0,0)"/>
<path d="" fill="#A7383C" transform="translate(0,0)"/>
<path d="" fill="#A43738" transform="translate(0,0)"/>
<path d="" fill="#A43739" transform="translate(0,0)"/>
<path d="" fill="#A73438" transform="translate(0,0)"/>
<path d="" fill="#A23939" transform="translate(0,0)"/>
<path d="" fill="#A13839" transform="translate(0,0)"/>
<path d="" fill="#A13534" transform="translate(0,0)"/>
<path d="" fill="#A43236" transform="translate(0,0)"/>
<path d="" fill="#A63538" transform="translate(0,0)"/>
<path d="" fill="#A23639" transform="translate(0,0)"/>
<path d="" fill="#A23536" transform="translate(0,0)"/>
<path d="" fill="#A43237" transform="translate(0,0)"/>
<path d="" fill="#A63235" transform="translate(0,0)"/>
<path d="" fill="#A43437" transform="translate(0,0)"/>
<path d="" fill="#A43537" transform="translate(0,0)"/>
<path d="" fill="#A53939" transform="translate(0,0)"/>
<path d="" fill="#A5383A" transform="translate(0,0)"/>
<path d="" fill="#A2353A" transform="translate(0,0)"/>
<path d="" fill="#A53A3B" transform="translate(0,0)"/>
<path d="" fill="#9F3639" transform="translate(0,0)"/>
<path d="" fill="#A2373B" transform="translate(0,0)"/>
<path d="" fill="#A63D3E" transform="translate(0,0)"/>
<path d="" fill="#A73E41" transform="translate(0,0)"/>
<path d="" fill="#A03A3D" transform="translate(0,0)"/>
<path d="" fill="#A43A3F" transform="translate(0,0)"/>
<path d="" fill="#9E6B66" transform="translate(0,0)"/>
</svg>
